M48
INCH,TZ
T1C0.032
T2C0.035
T3C0.055
T4C0.138
%
G90
G05
T1
X16331Y-13819
X16331Y-16819
X16331Y-48859
X16331Y-51859
X16393Y-31076
X16393Y-34076
X16393Y-66115
X16393Y-69115
X17331Y-13819
X17331Y-16819
X17331Y-48859
X17331Y-51859
X17393Y-31076
X17393Y-34076
X17393Y-66115
X17393Y-69115
X18831Y-13219
X18831Y-14219
X18831Y-15219
X18831Y-16219
X18831Y-17219
X18831Y-18219
X18831Y-19219
X18831Y-20219
X18831Y-21219
X18831Y-22219
X18831Y-23219
X18831Y-24219
X18831Y-48259
X18831Y-49259
X18831Y-50259
X18831Y-51259
X18831Y-52259
X18831Y-53259
X18831Y-54259
X18831Y-55259
X18831Y-56259
X18831Y-57259
X18831Y-58259
X18831Y-59259
X18893Y-30476
X18893Y-31476
X18893Y-32476
X18893Y-33476
X18893Y-34476
X18893Y-35476
X18893Y-36476
X18893Y-37476
X18893Y-38476
X18893Y-39476
X18893Y-40476
X18893Y-41476
X18893Y-65515
X18893Y-66515
X18893Y-67515
X18893Y-68515
X18893Y-69515
X18893Y-70515
X18893Y-71515
X18893Y-72515
X18893Y-73515
X18893Y-74515
X18893Y-75515
X18893Y-76515
X20323Y-13192
X20323Y-48231
X20385Y-30448
X20385Y-65487
X21307Y-13192
X21307Y-48231
X21370Y-30448
X21370Y-65487
X22354Y-13192
X22354Y-48231
X22417Y-30448
X22417Y-65487
X23339Y-13192
X23339Y-48231
X23401Y-30448
X23401Y-65487
X24831Y-13219
X24831Y-14219
X24831Y-15219
X24831Y-16219
X24831Y-17219
X24831Y-18219
X24831Y-19219
X24831Y-20219
X24831Y-21219
X24831Y-22219
X24831Y-23219
X24831Y-24219
X24831Y-48259
X24831Y-49259
X24831Y-50259
X24831Y-51259
X24831Y-52259
X24831Y-53259
X24831Y-54259
X24831Y-55259
X24831Y-56259
X24831Y-57259
X24831Y-58259
X24831Y-59259
X24893Y-30476
X24893Y-31476
X24893Y-32476
X24893Y-33476
X24893Y-34476
X24893Y-35476
X24893Y-36476
X24893Y-37476
X24893Y-38476
X24893Y-39476
X24893Y-40476
X24893Y-41476
X24893Y-65515
X24893Y-66515
X24893Y-67515
X24893Y-68515
X24893Y-69515
X24893Y-70515
X24893Y-71515
X24893Y-72515
X24893Y-73515
X24893Y-74515
X24893Y-75515
X24893Y-76515
X41431Y-13769
X41431Y-16769
X41431Y-48809
X41431Y-51809
X41493Y-31026
X41493Y-34026
X41493Y-66065
X41493Y-69065
X42431Y-13769
X42431Y-16769
X42431Y-48809
X42431Y-51809
X42493Y-31026
X42493Y-34026
X42493Y-66065
X42493Y-69065
X43931Y-13169
X43931Y-14169
X43931Y-15169
X43931Y-16169
X43931Y-17169
X43931Y-18169
X43931Y-19169
X43931Y-20169
X43931Y-21169
X43931Y-22169
X43931Y-23169
X43931Y-24169
X43931Y-48209
X43931Y-49209
X43931Y-50209
X43931Y-51209
X43931Y-52209
X43931Y-53209
X43931Y-54209
X43931Y-55209
X43931Y-56209
X43931Y-57209
X43931Y-58209
X43931Y-59209
X43993Y-30426
X43993Y-31426
X43993Y-32426
X43993Y-33426
X43993Y-34426
X43993Y-35426
X43993Y-36426
X43993Y-37426
X43993Y-38426
X43993Y-39426
X43993Y-40426
X43993Y-41426
X43993Y-65465
X43993Y-66465
X43993Y-67465
X43993Y-68465
X43993Y-69465
X43993Y-70465
X43993Y-71465
X43993Y-72465
X43993Y-73465
X43993Y-74465
X43993Y-75465
X43993Y-76465
X45423Y-13142
X45423Y-48181
X45485Y-30398
X45485Y-65437
X46407Y-13142
X46407Y-48181
X46470Y-30398
X46470Y-65437
X47454Y-13142
X47454Y-48181
X47517Y-30398
X47517Y-65437
X48439Y-13142
X48439Y-48181
X48501Y-30398
X48501Y-65437
X49931Y-13169
X49931Y-14169
X49931Y-15169
X49931Y-16169
X49931Y-17169
X49931Y-18169
X49931Y-19169
X49931Y-20169
X49931Y-21169
X49931Y-22169
X49931Y-23169
X49931Y-24169
X49931Y-48209
X49931Y-49209
X49931Y-50209
X49931Y-51209
X49931Y-52209
X49931Y-53209
X49931Y-54209
X49931Y-55209
X49931Y-56209
X49931Y-57209
X49931Y-58209
X49931Y-59209
X49993Y-30426
X49993Y-31426
X49993Y-32426
X49993Y-33426
X49993Y-34426
X49993Y-35426
X49993Y-36426
X49993Y-37426
X49993Y-38426
X49993Y-39426
X49993Y-40426
X49993Y-41426
X49993Y-65465
X49993Y-66465
X49993Y-67465
X49993Y-68465
X49993Y-69465
X49993Y-70465
X49993Y-71465
X49993Y-72465
X49993Y-73465
X49993Y-74465
X49993Y-75465
X49993Y-76465
X67031Y-13769
X67031Y-16769
X67031Y-48809
X67031Y-51809
X67093Y-31026
X67093Y-34026
X67093Y-66065
X67093Y-69065
X68031Y-13769
X68031Y-16769
X68031Y-48809
X68031Y-51809
X68093Y-31026
X68093Y-34026
X68093Y-66065
X68093Y-69065
X69531Y-13169
X69531Y-14169
X69531Y-15169
X69531Y-16169
X69531Y-17169
X69531Y-18169
X69531Y-19169
X69531Y-20169
X69531Y-21169
X69531Y-22169
X69531Y-23169
X69531Y-24169
X69531Y-48209
X69531Y-49209
X69531Y-50209
X69531Y-51209
X69531Y-52209
X69531Y-53209
X69531Y-54209
X69531Y-55209
X69531Y-56209
X69531Y-57209
X69531Y-58209
X69531Y-59209
X69593Y-30426
X69593Y-31426
X69593Y-32426
X69593Y-33426
X69593Y-34426
X69593Y-35426
X69593Y-36426
X69593Y-37426
X69593Y-38426
X69593Y-39426
X69593Y-40426
X69593Y-41426
X69593Y-65465
X69593Y-66465
X69593Y-67465
X69593Y-68465
X69593Y-69465
X69593Y-70465
X69593Y-71465
X69593Y-72465
X69593Y-73465
X69593Y-74465
X69593Y-75465
X69593Y-76465
X71023Y-13142
X71023Y-48181
X71085Y-30398
X71085Y-65437
X72007Y-13142
X72007Y-48181
X72070Y-30398
X72070Y-65437
X73054Y-13142
X73054Y-48181
X73117Y-30398
X73117Y-65437
X74039Y-13142
X74039Y-48181
X74101Y-30398
X74101Y-65437
X75531Y-13169
X75531Y-14169
X75531Y-15169
X75531Y-16169
X75531Y-17169
X75531Y-18169
X75531Y-19169
X75531Y-20169
X75531Y-21169
X75531Y-22169
X75531Y-23169
X75531Y-24169
X75531Y-48209
X75531Y-49209
X75531Y-50209
X75531Y-51209
X75531Y-52209
X75531Y-53209
X75531Y-54209
X75531Y-55209
X75531Y-56209
X75531Y-57209
X75531Y-58209
X75531Y-59209
X75593Y-30426
X75593Y-31426
X75593Y-32426
X75593Y-33426
X75593Y-34426
X75593Y-35426
X75593Y-36426
X75593Y-37426
X75593Y-38426
X75593Y-39426
X75593Y-40426
X75593Y-41426
X75593Y-65465
X75593Y-66465
X75593Y-67465
X75593Y-68465
X75593Y-69465
X75593Y-70465
X75593Y-71465
X75593Y-72465
X75593Y-73465
X75593Y-74465
X75593Y-75465
X75593Y-76465
T2
X28231Y-13219
X28231Y-14219
X28231Y-15219
X28231Y-16219
X28231Y-17219
X28231Y-18219
X28231Y-19219
X28231Y-20219
X28231Y-48259
X28231Y-49259
X28231Y-50259
X28231Y-51259
X28231Y-52259
X28231Y-53259
X28231Y-54259
X28231Y-55259
X28293Y-30476
X28293Y-31476
X28293Y-32476
X28293Y-33476
X28293Y-34476
X28293Y-35476
X28293Y-36476
X28293Y-37476
X28293Y-65515
X28293Y-66515
X28293Y-67515
X28293Y-68515
X28293Y-69515
X28293Y-70515
X28293Y-71515
X28293Y-72515
X53331Y-13169
X53331Y-14169
X53331Y-15169
X53331Y-16169
X53331Y-17169
X53331Y-18169
X53331Y-19169
X53331Y-20169
X53331Y-48209
X53331Y-49209
X53331Y-50209
X53331Y-51209
X53331Y-52209
X53331Y-53209
X53331Y-54209
X53331Y-55209
X53393Y-30426
X53393Y-31426
X53393Y-32426
X53393Y-33426
X53393Y-34426
X53393Y-35426
X53393Y-36426
X53393Y-37426
X53393Y-65465
X53393Y-66465
X53393Y-67465
X53393Y-68465
X53393Y-69465
X53393Y-70465
X53393Y-71465
X53393Y-72465
X78931Y-13169
X78931Y-14169
X78931Y-15169
X78931Y-16169
X78931Y-17169
X78931Y-18169
X78931Y-19169
X78931Y-20169
X78931Y-48209
X78931Y-49209
X78931Y-50209
X78931Y-51209
X78931Y-52209
X78931Y-53209
X78931Y-54209
X78931Y-55209
X78993Y-30426
X78993Y-31426
X78993Y-32426
X78993Y-33426
X78993Y-34426
X78993Y-35426
X78993Y-36426
X78993Y-37426
X78993Y-65465
X78993Y-66465
X78993Y-67465
X78993Y-68465
X78993Y-69465
X78993Y-70465
X78993Y-71465
X78993Y-72465
T3
X8622Y-48989
X8622Y-52926
X8685Y-66245
X8685Y-70182
X9803Y-15918
X9803Y-19855
X9866Y-33174
X9866Y-37111
X12362Y-47906
X12362Y-50859
X12362Y-53811
X12425Y-65162
X12425Y-68115
X12425Y-71068
X13346Y-48890
X13346Y-52827
X13409Y-66146
X13409Y-70083
X13543Y-14835
X13543Y-17788
X13543Y-20741
X13606Y-32091
X13606Y-35044
X13606Y-37997
X14528Y-15819
X14528Y-19756
X14590Y-33076
X14590Y-37013
X34903Y-15868
X34903Y-19805
X34903Y-50907
X34903Y-54844
X34966Y-33124
X34966Y-37061
X34966Y-68163
X34966Y-72100
X38643Y-14785
X38643Y-17738
X38643Y-20691
X38643Y-49824
X38643Y-52777
X38643Y-55730
X38706Y-32041
X38706Y-34994
X38706Y-37947
X38706Y-67081
X38706Y-70033
X38706Y-72986
X39628Y-15769
X39628Y-19706
X39628Y-50809
X39628Y-54746
X39690Y-33026
X39690Y-36963
X39690Y-68065
X39690Y-72002
X60503Y-15868
X60503Y-19805
X60503Y-50907
X60503Y-54844
X60566Y-33124
X60566Y-37061
X60566Y-68163
X60566Y-72100
X64243Y-14785
X64243Y-17738
X64243Y-20691
X64243Y-49824
X64243Y-52777
X64243Y-55730
X64306Y-32041
X64306Y-34994
X64306Y-37947
X64306Y-67081
X64306Y-70033
X64306Y-72986
X65228Y-15769
X65228Y-19706
X65228Y-50809
X65228Y-54746
X65290Y-33026
X65290Y-36963
X65290Y-68065
X65290Y-72002
T4
X10531Y-12419
X10531Y-24919
X10531Y-47459
X10531Y-59959
X10593Y-29676
X10593Y-42176
X10593Y-64715
X10593Y-77215
X29781Y-12419
X29781Y-24919
X29781Y-47459
X29781Y-59959
X29843Y-29676
X29843Y-42176
X29843Y-64715
X29843Y-77215
X35631Y-12369
X35631Y-24869
X35631Y-47409
X35631Y-59909
X35693Y-29626
X35693Y-42126
X35693Y-64665
X35693Y-77165
X54881Y-12369
X54881Y-24869
X54881Y-47409
X54881Y-59909
X54943Y-29626
X54943Y-42126
X54943Y-64665
X54943Y-77165
X61231Y-12369
X61231Y-24869
X61231Y-47409
X61231Y-59909
X61293Y-29626
X61293Y-42126
X61293Y-64665
X61293Y-77165
X80481Y-12369
X80481Y-24869
X80481Y-47409
X80481Y-59909
X80543Y-29626
X80543Y-42126
X80543Y-64665
X80543Y-77165
T0
M30
