M48
INCH,TZ
T1C0.032
T2C0.035
T3C0.055
T4C0.138
%
G90
G05
T1
X38300Y-20400
X38300Y-23400
X39300Y-20400
X39300Y-23400
X40800Y-19800
X40800Y-20800
X40800Y-21800
X40800Y-22800
X40800Y-23800
X40800Y-24800
X40800Y-25800
X40800Y-26800
X40800Y-27800
X40800Y-28800
X40800Y-29800
X40800Y-30800
X42292Y-19772
X43276Y-19772
X44324Y-19772
X45308Y-19772
X46800Y-19800
X46800Y-20800
X46800Y-21800
X46800Y-22800
X46800Y-23800
X46800Y-24800
X46800Y-25800
X46800Y-26800
X46800Y-27800
X46800Y-28800
X46800Y-29800
X46800Y-30800
T2
X50200Y-19800
X50200Y-20800
X50200Y-21800
X50200Y-22800
X50200Y-23800
X50200Y-24800
X50200Y-25800
X50200Y-26800
T3
X31772Y-22498
X31772Y-26435
X35513Y-21416
X35513Y-24369
X35513Y-27321
X36497Y-22400
X36497Y-26337
T4
X32500Y-19000
X32500Y-31500
X51750Y-19000
X51750Y-31500
T0
M30
