G04 (created by PCBNEW (2013-07-07 BZR 4022)-stable) date 16/07/2014 11:45:37*
%MOIN*%
G04 Gerber Fmt 3.4, Leading zero omitted, Abs format*
%FSLAX34Y34*%
G01*
G70*
G90*
G04 APERTURE LIST*
%ADD10C,0.00590551*%
%ADD11R,0.08X0.12*%
%ADD12R,0.12X0.08*%
%ADD13C,0.055*%
%ADD14O,0.12X0.08*%
%ADD15C,0.1*%
%ADD16C,0.12*%
%ADD17C,0.137795*%
G04 APERTURE END LIST*
G54D10*
G54D11*
X38300Y-23400D03*
X38300Y-20400D03*
X39300Y-23400D03*
X39300Y-20400D03*
G54D12*
X46800Y-30800D03*
X46800Y-29800D03*
X46800Y-28800D03*
X46800Y-27800D03*
X46800Y-26800D03*
X46800Y-25800D03*
X46800Y-24800D03*
X46800Y-23800D03*
X46800Y-22800D03*
X46800Y-21800D03*
X46800Y-20800D03*
X46800Y-19800D03*
G54D11*
X45307Y-19772D03*
X44323Y-19772D03*
X43276Y-19772D03*
X42292Y-19772D03*
G54D13*
X40800Y-19800D03*
G54D14*
X40800Y-20800D03*
G54D12*
X40800Y-21800D03*
X40800Y-22800D03*
X40800Y-23800D03*
X40800Y-24800D03*
X40800Y-25800D03*
X40800Y-26800D03*
X40800Y-27800D03*
X40800Y-28800D03*
X40800Y-29800D03*
X40800Y-30800D03*
G54D15*
X35512Y-21415D03*
X35512Y-24368D03*
X35512Y-27321D03*
X36496Y-22400D03*
X36496Y-26337D03*
G54D16*
X31772Y-22498D03*
X31772Y-26435D03*
G54D17*
X32500Y-19000D03*
X51750Y-19000D03*
X51750Y-31500D03*
X32500Y-31500D03*
G54D12*
X50200Y-23800D03*
X50200Y-22800D03*
X50200Y-24800D03*
X50200Y-25800D03*
X50200Y-26800D03*
X50200Y-21800D03*
X50200Y-20800D03*
X50200Y-19800D03*
M02*
