G04 (created by PCBNEW (2013-07-07 BZR 4022)-stable) date 21/07/2014 09:22:51*
%MOIN*%
G04 Gerber Fmt 3.4, Leading zero omitted, Abs format*
%FSLAX34Y34*%
G01*
G70*
G90*
G04 APERTURE LIST*
%ADD10C,0.00590551*%
%ADD11C,0.008*%
%ADD12C,0.01125*%
%ADD13C,0.012*%
G04 APERTURE END LIST*
G54D10*
X53580Y-47708D02*
X52830Y-47708D01*
X52830Y-47708D02*
X52830Y-55708D01*
X52830Y-55708D02*
X53830Y-55708D01*
X53830Y-55708D02*
X53830Y-47708D01*
X53830Y-47708D02*
X53580Y-47708D01*
X33722Y-49037D02*
X33722Y-57600D01*
X33722Y-57600D02*
X32934Y-57600D01*
X32934Y-57600D02*
X32934Y-48151D01*
X32934Y-48151D02*
X33722Y-48151D01*
X33722Y-48151D02*
X33722Y-49037D01*
X33722Y-56812D02*
X40414Y-56812D01*
X40414Y-56812D02*
X40414Y-49037D01*
X40414Y-49037D02*
X33722Y-49037D01*
X47130Y-49308D02*
G75*
G03X47130Y-49308I-200J0D01*
G74*
G01*
X45930Y-49708D02*
X47930Y-49708D01*
X47930Y-49708D02*
X47930Y-48958D01*
X47930Y-48958D02*
X45930Y-48958D01*
X45930Y-48958D02*
X45930Y-49708D01*
X46930Y-55708D02*
X45930Y-55708D01*
X45930Y-55708D02*
X45930Y-53708D01*
X45930Y-53708D02*
X47930Y-53708D01*
X47930Y-53708D02*
X47930Y-55708D01*
X47930Y-55708D02*
X46930Y-55708D01*
X43387Y-59992D02*
X50572Y-59992D01*
X50572Y-59992D02*
X50572Y-47393D01*
X50572Y-47393D02*
X43387Y-47393D01*
X43387Y-47393D02*
X43387Y-59992D01*
G54D11*
X42430Y-51808D02*
X42430Y-51608D01*
X42430Y-48808D02*
X42430Y-49008D01*
X42430Y-49008D02*
X42030Y-49008D01*
X42030Y-49008D02*
X42030Y-51608D01*
X42030Y-51608D02*
X42830Y-51608D01*
X42830Y-51608D02*
X42830Y-49008D01*
X42830Y-49008D02*
X42430Y-49008D01*
X42230Y-51608D02*
X42030Y-51408D01*
X41430Y-51808D02*
X41430Y-51608D01*
X41430Y-48808D02*
X41430Y-49008D01*
X41430Y-49008D02*
X41030Y-49008D01*
X41030Y-49008D02*
X41030Y-51608D01*
X41030Y-51608D02*
X41830Y-51608D01*
X41830Y-51608D02*
X41830Y-49008D01*
X41830Y-49008D02*
X41430Y-49008D01*
X41230Y-51608D02*
X41030Y-51408D01*
X16330Y-51858D02*
X16330Y-51658D01*
X16330Y-48858D02*
X16330Y-49058D01*
X16330Y-49058D02*
X15930Y-49058D01*
X15930Y-49058D02*
X15930Y-51658D01*
X15930Y-51658D02*
X16730Y-51658D01*
X16730Y-51658D02*
X16730Y-49058D01*
X16730Y-49058D02*
X16330Y-49058D01*
X16130Y-51658D02*
X15930Y-51458D01*
X17330Y-51858D02*
X17330Y-51658D01*
X17330Y-48858D02*
X17330Y-49058D01*
X17330Y-49058D02*
X16930Y-49058D01*
X16930Y-49058D02*
X16930Y-51658D01*
X16930Y-51658D02*
X17730Y-51658D01*
X17730Y-51658D02*
X17730Y-49058D01*
X17730Y-49058D02*
X17330Y-49058D01*
X17130Y-51658D02*
X16930Y-51458D01*
G54D10*
X22030Y-49358D02*
G75*
G03X22030Y-49358I-200J0D01*
G74*
G01*
X20830Y-49758D02*
X22830Y-49758D01*
X22830Y-49758D02*
X22830Y-49008D01*
X22830Y-49008D02*
X20830Y-49008D01*
X20830Y-49008D02*
X20830Y-49758D01*
X21830Y-55758D02*
X20830Y-55758D01*
X20830Y-55758D02*
X20830Y-53758D01*
X20830Y-53758D02*
X22830Y-53758D01*
X22830Y-53758D02*
X22830Y-55758D01*
X22830Y-55758D02*
X21830Y-55758D01*
X18287Y-60042D02*
X25472Y-60042D01*
X25472Y-60042D02*
X25472Y-47443D01*
X25472Y-47443D02*
X18287Y-47443D01*
X18287Y-47443D02*
X18287Y-60042D01*
X7440Y-47118D02*
X7440Y-55681D01*
X7440Y-55681D02*
X6653Y-55681D01*
X6653Y-55681D02*
X6653Y-46232D01*
X6653Y-46232D02*
X7440Y-46232D01*
X7440Y-46232D02*
X7440Y-47118D01*
X7440Y-54894D02*
X14133Y-54894D01*
X14133Y-54894D02*
X14133Y-47118D01*
X14133Y-47118D02*
X7440Y-47118D01*
X28480Y-47758D02*
X27730Y-47758D01*
X27730Y-47758D02*
X27730Y-55758D01*
X27730Y-55758D02*
X28730Y-55758D01*
X28730Y-55758D02*
X28730Y-47758D01*
X28730Y-47758D02*
X28480Y-47758D01*
G54D11*
X67030Y-51808D02*
X67030Y-51608D01*
X67030Y-48808D02*
X67030Y-49008D01*
X67030Y-49008D02*
X66630Y-49008D01*
X66630Y-49008D02*
X66630Y-51608D01*
X66630Y-51608D02*
X67430Y-51608D01*
X67430Y-51608D02*
X67430Y-49008D01*
X67430Y-49008D02*
X67030Y-49008D01*
X66830Y-51608D02*
X66630Y-51408D01*
X68030Y-51808D02*
X68030Y-51608D01*
X68030Y-48808D02*
X68030Y-49008D01*
X68030Y-49008D02*
X67630Y-49008D01*
X67630Y-49008D02*
X67630Y-51608D01*
X67630Y-51608D02*
X68430Y-51608D01*
X68430Y-51608D02*
X68430Y-49008D01*
X68430Y-49008D02*
X68030Y-49008D01*
X67830Y-51608D02*
X67630Y-51408D01*
G54D10*
X72730Y-49308D02*
G75*
G03X72730Y-49308I-200J0D01*
G74*
G01*
X71530Y-49708D02*
X73530Y-49708D01*
X73530Y-49708D02*
X73530Y-48958D01*
X73530Y-48958D02*
X71530Y-48958D01*
X71530Y-48958D02*
X71530Y-49708D01*
X72530Y-55708D02*
X71530Y-55708D01*
X71530Y-55708D02*
X71530Y-53708D01*
X71530Y-53708D02*
X73530Y-53708D01*
X73530Y-53708D02*
X73530Y-55708D01*
X73530Y-55708D02*
X72530Y-55708D01*
X68987Y-59992D02*
X76172Y-59992D01*
X76172Y-59992D02*
X76172Y-47393D01*
X76172Y-47393D02*
X68987Y-47393D01*
X68987Y-47393D02*
X68987Y-59992D01*
X59322Y-49037D02*
X59322Y-57600D01*
X59322Y-57600D02*
X58534Y-57600D01*
X58534Y-57600D02*
X58534Y-48151D01*
X58534Y-48151D02*
X59322Y-48151D01*
X59322Y-48151D02*
X59322Y-49037D01*
X59322Y-56812D02*
X66014Y-56812D01*
X66014Y-56812D02*
X66014Y-49037D01*
X66014Y-49037D02*
X59322Y-49037D01*
X79180Y-47708D02*
X78430Y-47708D01*
X78430Y-47708D02*
X78430Y-55708D01*
X78430Y-55708D02*
X79430Y-55708D01*
X79430Y-55708D02*
X79430Y-47708D01*
X79430Y-47708D02*
X79180Y-47708D01*
X79243Y-64964D02*
X78493Y-64964D01*
X78493Y-64964D02*
X78493Y-72964D01*
X78493Y-72964D02*
X79493Y-72964D01*
X79493Y-72964D02*
X79493Y-64964D01*
X79493Y-64964D02*
X79243Y-64964D01*
X59384Y-66293D02*
X59384Y-74856D01*
X59384Y-74856D02*
X58597Y-74856D01*
X58597Y-74856D02*
X58597Y-65407D01*
X58597Y-65407D02*
X59384Y-65407D01*
X59384Y-65407D02*
X59384Y-66293D01*
X59384Y-74068D02*
X66077Y-74068D01*
X66077Y-74068D02*
X66077Y-66293D01*
X66077Y-66293D02*
X59384Y-66293D01*
X72793Y-66564D02*
G75*
G03X72793Y-66564I-200J0D01*
G74*
G01*
X71593Y-66964D02*
X73593Y-66964D01*
X73593Y-66964D02*
X73593Y-66214D01*
X73593Y-66214D02*
X71593Y-66214D01*
X71593Y-66214D02*
X71593Y-66964D01*
X72593Y-72964D02*
X71593Y-72964D01*
X71593Y-72964D02*
X71593Y-70964D01*
X71593Y-70964D02*
X73593Y-70964D01*
X73593Y-70964D02*
X73593Y-72964D01*
X73593Y-72964D02*
X72593Y-72964D01*
X69050Y-77248D02*
X76235Y-77248D01*
X76235Y-77248D02*
X76235Y-64650D01*
X76235Y-64650D02*
X69050Y-64650D01*
X69050Y-64650D02*
X69050Y-77248D01*
G54D11*
X68093Y-69064D02*
X68093Y-68864D01*
X68093Y-66064D02*
X68093Y-66264D01*
X68093Y-66264D02*
X67693Y-66264D01*
X67693Y-66264D02*
X67693Y-68864D01*
X67693Y-68864D02*
X68493Y-68864D01*
X68493Y-68864D02*
X68493Y-66264D01*
X68493Y-66264D02*
X68093Y-66264D01*
X67893Y-68864D02*
X67693Y-68664D01*
X67093Y-69064D02*
X67093Y-68864D01*
X67093Y-66064D02*
X67093Y-66264D01*
X67093Y-66264D02*
X66693Y-66264D01*
X66693Y-66264D02*
X66693Y-68864D01*
X66693Y-68864D02*
X67493Y-68864D01*
X67493Y-68864D02*
X67493Y-66264D01*
X67493Y-66264D02*
X67093Y-66264D01*
X66893Y-68864D02*
X66693Y-68664D01*
G54D10*
X28543Y-65014D02*
X27793Y-65014D01*
X27793Y-65014D02*
X27793Y-73014D01*
X27793Y-73014D02*
X28793Y-73014D01*
X28793Y-73014D02*
X28793Y-65014D01*
X28793Y-65014D02*
X28543Y-65014D01*
X7503Y-64374D02*
X7503Y-72937D01*
X7503Y-72937D02*
X6716Y-72937D01*
X6716Y-72937D02*
X6716Y-63488D01*
X6716Y-63488D02*
X7503Y-63488D01*
X7503Y-63488D02*
X7503Y-64374D01*
X7503Y-72150D02*
X14196Y-72150D01*
X14196Y-72150D02*
X14196Y-64374D01*
X14196Y-64374D02*
X7503Y-64374D01*
X22093Y-66614D02*
G75*
G03X22093Y-66614I-200J0D01*
G74*
G01*
X20893Y-67014D02*
X22893Y-67014D01*
X22893Y-67014D02*
X22893Y-66264D01*
X22893Y-66264D02*
X20893Y-66264D01*
X20893Y-66264D02*
X20893Y-67014D01*
X21893Y-73014D02*
X20893Y-73014D01*
X20893Y-73014D02*
X20893Y-71014D01*
X20893Y-71014D02*
X22893Y-71014D01*
X22893Y-71014D02*
X22893Y-73014D01*
X22893Y-73014D02*
X21893Y-73014D01*
X18350Y-77298D02*
X25535Y-77298D01*
X25535Y-77298D02*
X25535Y-64700D01*
X25535Y-64700D02*
X18350Y-64700D01*
X18350Y-64700D02*
X18350Y-77298D01*
G54D11*
X17393Y-69114D02*
X17393Y-68914D01*
X17393Y-66114D02*
X17393Y-66314D01*
X17393Y-66314D02*
X16993Y-66314D01*
X16993Y-66314D02*
X16993Y-68914D01*
X16993Y-68914D02*
X17793Y-68914D01*
X17793Y-68914D02*
X17793Y-66314D01*
X17793Y-66314D02*
X17393Y-66314D01*
X17193Y-68914D02*
X16993Y-68714D01*
X16393Y-69114D02*
X16393Y-68914D01*
X16393Y-66114D02*
X16393Y-66314D01*
X16393Y-66314D02*
X15993Y-66314D01*
X15993Y-66314D02*
X15993Y-68914D01*
X15993Y-68914D02*
X16793Y-68914D01*
X16793Y-68914D02*
X16793Y-66314D01*
X16793Y-66314D02*
X16393Y-66314D01*
X16193Y-68914D02*
X15993Y-68714D01*
X41493Y-69064D02*
X41493Y-68864D01*
X41493Y-66064D02*
X41493Y-66264D01*
X41493Y-66264D02*
X41093Y-66264D01*
X41093Y-66264D02*
X41093Y-68864D01*
X41093Y-68864D02*
X41893Y-68864D01*
X41893Y-68864D02*
X41893Y-66264D01*
X41893Y-66264D02*
X41493Y-66264D01*
X41293Y-68864D02*
X41093Y-68664D01*
X42493Y-69064D02*
X42493Y-68864D01*
X42493Y-66064D02*
X42493Y-66264D01*
X42493Y-66264D02*
X42093Y-66264D01*
X42093Y-66264D02*
X42093Y-68864D01*
X42093Y-68864D02*
X42893Y-68864D01*
X42893Y-68864D02*
X42893Y-66264D01*
X42893Y-66264D02*
X42493Y-66264D01*
X42293Y-68864D02*
X42093Y-68664D01*
G54D10*
X47193Y-66564D02*
G75*
G03X47193Y-66564I-200J0D01*
G74*
G01*
X45993Y-66964D02*
X47993Y-66964D01*
X47993Y-66964D02*
X47993Y-66214D01*
X47993Y-66214D02*
X45993Y-66214D01*
X45993Y-66214D02*
X45993Y-66964D01*
X46993Y-72964D02*
X45993Y-72964D01*
X45993Y-72964D02*
X45993Y-70964D01*
X45993Y-70964D02*
X47993Y-70964D01*
X47993Y-70964D02*
X47993Y-72964D01*
X47993Y-72964D02*
X46993Y-72964D01*
X43450Y-77248D02*
X50635Y-77248D01*
X50635Y-77248D02*
X50635Y-64650D01*
X50635Y-64650D02*
X43450Y-64650D01*
X43450Y-64650D02*
X43450Y-77248D01*
X33784Y-66293D02*
X33784Y-74856D01*
X33784Y-74856D02*
X32997Y-74856D01*
X32997Y-74856D02*
X32997Y-65407D01*
X32997Y-65407D02*
X33784Y-65407D01*
X33784Y-65407D02*
X33784Y-66293D01*
X33784Y-74068D02*
X40477Y-74068D01*
X40477Y-74068D02*
X40477Y-66293D01*
X40477Y-66293D02*
X33784Y-66293D01*
X53643Y-64964D02*
X52893Y-64964D01*
X52893Y-64964D02*
X52893Y-72964D01*
X52893Y-72964D02*
X53893Y-72964D01*
X53893Y-72964D02*
X53893Y-64964D01*
X53893Y-64964D02*
X53643Y-64964D01*
X53643Y-29925D02*
X52893Y-29925D01*
X52893Y-29925D02*
X52893Y-37925D01*
X52893Y-37925D02*
X53893Y-37925D01*
X53893Y-37925D02*
X53893Y-29925D01*
X53893Y-29925D02*
X53643Y-29925D01*
X33784Y-31253D02*
X33784Y-39816D01*
X33784Y-39816D02*
X32997Y-39816D01*
X32997Y-39816D02*
X32997Y-30368D01*
X32997Y-30368D02*
X33784Y-30368D01*
X33784Y-30368D02*
X33784Y-31253D01*
X33784Y-39029D02*
X40477Y-39029D01*
X40477Y-39029D02*
X40477Y-31253D01*
X40477Y-31253D02*
X33784Y-31253D01*
X47193Y-31525D02*
G75*
G03X47193Y-31525I-200J0D01*
G74*
G01*
X45993Y-31925D02*
X47993Y-31925D01*
X47993Y-31925D02*
X47993Y-31175D01*
X47993Y-31175D02*
X45993Y-31175D01*
X45993Y-31175D02*
X45993Y-31925D01*
X46993Y-37925D02*
X45993Y-37925D01*
X45993Y-37925D02*
X45993Y-35925D01*
X45993Y-35925D02*
X47993Y-35925D01*
X47993Y-35925D02*
X47993Y-37925D01*
X47993Y-37925D02*
X46993Y-37925D01*
X43450Y-42209D02*
X50635Y-42209D01*
X50635Y-42209D02*
X50635Y-29610D01*
X50635Y-29610D02*
X43450Y-29610D01*
X43450Y-29610D02*
X43450Y-42209D01*
G54D11*
X42493Y-34025D02*
X42493Y-33825D01*
X42493Y-31025D02*
X42493Y-31225D01*
X42493Y-31225D02*
X42093Y-31225D01*
X42093Y-31225D02*
X42093Y-33825D01*
X42093Y-33825D02*
X42893Y-33825D01*
X42893Y-33825D02*
X42893Y-31225D01*
X42893Y-31225D02*
X42493Y-31225D01*
X42293Y-33825D02*
X42093Y-33625D01*
X41493Y-34025D02*
X41493Y-33825D01*
X41493Y-31025D02*
X41493Y-31225D01*
X41493Y-31225D02*
X41093Y-31225D01*
X41093Y-31225D02*
X41093Y-33825D01*
X41093Y-33825D02*
X41893Y-33825D01*
X41893Y-33825D02*
X41893Y-31225D01*
X41893Y-31225D02*
X41493Y-31225D01*
X41293Y-33825D02*
X41093Y-33625D01*
X16393Y-34075D02*
X16393Y-33875D01*
X16393Y-31075D02*
X16393Y-31275D01*
X16393Y-31275D02*
X15993Y-31275D01*
X15993Y-31275D02*
X15993Y-33875D01*
X15993Y-33875D02*
X16793Y-33875D01*
X16793Y-33875D02*
X16793Y-31275D01*
X16793Y-31275D02*
X16393Y-31275D01*
X16193Y-33875D02*
X15993Y-33675D01*
X17393Y-34075D02*
X17393Y-33875D01*
X17393Y-31075D02*
X17393Y-31275D01*
X17393Y-31275D02*
X16993Y-31275D01*
X16993Y-31275D02*
X16993Y-33875D01*
X16993Y-33875D02*
X17793Y-33875D01*
X17793Y-33875D02*
X17793Y-31275D01*
X17793Y-31275D02*
X17393Y-31275D01*
X17193Y-33875D02*
X16993Y-33675D01*
G54D10*
X22093Y-31575D02*
G75*
G03X22093Y-31575I-200J0D01*
G74*
G01*
X20893Y-31975D02*
X22893Y-31975D01*
X22893Y-31975D02*
X22893Y-31225D01*
X22893Y-31225D02*
X20893Y-31225D01*
X20893Y-31225D02*
X20893Y-31975D01*
X21893Y-37975D02*
X20893Y-37975D01*
X20893Y-37975D02*
X20893Y-35975D01*
X20893Y-35975D02*
X22893Y-35975D01*
X22893Y-35975D02*
X22893Y-37975D01*
X22893Y-37975D02*
X21893Y-37975D01*
X18350Y-42259D02*
X25535Y-42259D01*
X25535Y-42259D02*
X25535Y-29660D01*
X25535Y-29660D02*
X18350Y-29660D01*
X18350Y-29660D02*
X18350Y-42259D01*
X8684Y-31303D02*
X8684Y-39866D01*
X8684Y-39866D02*
X7897Y-39866D01*
X7897Y-39866D02*
X7897Y-30418D01*
X7897Y-30418D02*
X8684Y-30418D01*
X8684Y-30418D02*
X8684Y-31303D01*
X8684Y-39079D02*
X15377Y-39079D01*
X15377Y-39079D02*
X15377Y-31303D01*
X15377Y-31303D02*
X8684Y-31303D01*
X28543Y-29975D02*
X27793Y-29975D01*
X27793Y-29975D02*
X27793Y-37975D01*
X27793Y-37975D02*
X28793Y-37975D01*
X28793Y-37975D02*
X28793Y-29975D01*
X28793Y-29975D02*
X28543Y-29975D01*
G54D11*
X67093Y-34025D02*
X67093Y-33825D01*
X67093Y-31025D02*
X67093Y-31225D01*
X67093Y-31225D02*
X66693Y-31225D01*
X66693Y-31225D02*
X66693Y-33825D01*
X66693Y-33825D02*
X67493Y-33825D01*
X67493Y-33825D02*
X67493Y-31225D01*
X67493Y-31225D02*
X67093Y-31225D01*
X66893Y-33825D02*
X66693Y-33625D01*
X68093Y-34025D02*
X68093Y-33825D01*
X68093Y-31025D02*
X68093Y-31225D01*
X68093Y-31225D02*
X67693Y-31225D01*
X67693Y-31225D02*
X67693Y-33825D01*
X67693Y-33825D02*
X68493Y-33825D01*
X68493Y-33825D02*
X68493Y-31225D01*
X68493Y-31225D02*
X68093Y-31225D01*
X67893Y-33825D02*
X67693Y-33625D01*
G54D10*
X72793Y-31525D02*
G75*
G03X72793Y-31525I-200J0D01*
G74*
G01*
X71593Y-31925D02*
X73593Y-31925D01*
X73593Y-31925D02*
X73593Y-31175D01*
X73593Y-31175D02*
X71593Y-31175D01*
X71593Y-31175D02*
X71593Y-31925D01*
X72593Y-37925D02*
X71593Y-37925D01*
X71593Y-37925D02*
X71593Y-35925D01*
X71593Y-35925D02*
X73593Y-35925D01*
X73593Y-35925D02*
X73593Y-37925D01*
X73593Y-37925D02*
X72593Y-37925D01*
X69050Y-42209D02*
X76235Y-42209D01*
X76235Y-42209D02*
X76235Y-29610D01*
X76235Y-29610D02*
X69050Y-29610D01*
X69050Y-29610D02*
X69050Y-42209D01*
X59384Y-31253D02*
X59384Y-39816D01*
X59384Y-39816D02*
X58597Y-39816D01*
X58597Y-39816D02*
X58597Y-30368D01*
X58597Y-30368D02*
X59384Y-30368D01*
X59384Y-30368D02*
X59384Y-31253D01*
X59384Y-39029D02*
X66077Y-39029D01*
X66077Y-39029D02*
X66077Y-31253D01*
X66077Y-31253D02*
X59384Y-31253D01*
X79243Y-29925D02*
X78493Y-29925D01*
X78493Y-29925D02*
X78493Y-37925D01*
X78493Y-37925D02*
X79493Y-37925D01*
X79493Y-37925D02*
X79493Y-29925D01*
X79493Y-29925D02*
X79243Y-29925D01*
X79180Y-12669D02*
X78430Y-12669D01*
X78430Y-12669D02*
X78430Y-20669D01*
X78430Y-20669D02*
X79430Y-20669D01*
X79430Y-20669D02*
X79430Y-12669D01*
X79430Y-12669D02*
X79180Y-12669D01*
X59322Y-13997D02*
X59322Y-22560D01*
X59322Y-22560D02*
X58534Y-22560D01*
X58534Y-22560D02*
X58534Y-13111D01*
X58534Y-13111D02*
X59322Y-13111D01*
X59322Y-13111D02*
X59322Y-13997D01*
X59322Y-21773D02*
X66014Y-21773D01*
X66014Y-21773D02*
X66014Y-13997D01*
X66014Y-13997D02*
X59322Y-13997D01*
X72730Y-14269D02*
G75*
G03X72730Y-14269I-200J0D01*
G74*
G01*
X71530Y-14669D02*
X73530Y-14669D01*
X73530Y-14669D02*
X73530Y-13919D01*
X73530Y-13919D02*
X71530Y-13919D01*
X71530Y-13919D02*
X71530Y-14669D01*
X72530Y-20669D02*
X71530Y-20669D01*
X71530Y-20669D02*
X71530Y-18669D01*
X71530Y-18669D02*
X73530Y-18669D01*
X73530Y-18669D02*
X73530Y-20669D01*
X73530Y-20669D02*
X72530Y-20669D01*
X68987Y-24952D02*
X76172Y-24952D01*
X76172Y-24952D02*
X76172Y-12354D01*
X76172Y-12354D02*
X68987Y-12354D01*
X68987Y-12354D02*
X68987Y-24952D01*
G54D11*
X68030Y-16769D02*
X68030Y-16569D01*
X68030Y-13769D02*
X68030Y-13969D01*
X68030Y-13969D02*
X67630Y-13969D01*
X67630Y-13969D02*
X67630Y-16569D01*
X67630Y-16569D02*
X68430Y-16569D01*
X68430Y-16569D02*
X68430Y-13969D01*
X68430Y-13969D02*
X68030Y-13969D01*
X67830Y-16569D02*
X67630Y-16369D01*
X67030Y-16769D02*
X67030Y-16569D01*
X67030Y-13769D02*
X67030Y-13969D01*
X67030Y-13969D02*
X66630Y-13969D01*
X66630Y-13969D02*
X66630Y-16569D01*
X66630Y-16569D02*
X67430Y-16569D01*
X67430Y-16569D02*
X67430Y-13969D01*
X67430Y-13969D02*
X67030Y-13969D01*
X66830Y-16569D02*
X66630Y-16369D01*
G54D10*
X28480Y-12719D02*
X27730Y-12719D01*
X27730Y-12719D02*
X27730Y-20719D01*
X27730Y-20719D02*
X28730Y-20719D01*
X28730Y-20719D02*
X28730Y-12719D01*
X28730Y-12719D02*
X28480Y-12719D01*
X8622Y-14047D02*
X8622Y-22610D01*
X8622Y-22610D02*
X7834Y-22610D01*
X7834Y-22610D02*
X7834Y-13161D01*
X7834Y-13161D02*
X8622Y-13161D01*
X8622Y-13161D02*
X8622Y-14047D01*
X8622Y-21823D02*
X15314Y-21823D01*
X15314Y-21823D02*
X15314Y-14047D01*
X15314Y-14047D02*
X8622Y-14047D01*
X22030Y-14319D02*
G75*
G03X22030Y-14319I-200J0D01*
G74*
G01*
X20830Y-14719D02*
X22830Y-14719D01*
X22830Y-14719D02*
X22830Y-13969D01*
X22830Y-13969D02*
X20830Y-13969D01*
X20830Y-13969D02*
X20830Y-14719D01*
X21830Y-20719D02*
X20830Y-20719D01*
X20830Y-20719D02*
X20830Y-18719D01*
X20830Y-18719D02*
X22830Y-18719D01*
X22830Y-18719D02*
X22830Y-20719D01*
X22830Y-20719D02*
X21830Y-20719D01*
X18287Y-25002D02*
X25472Y-25002D01*
X25472Y-25002D02*
X25472Y-12404D01*
X25472Y-12404D02*
X18287Y-12404D01*
X18287Y-12404D02*
X18287Y-25002D01*
G54D11*
X17330Y-16819D02*
X17330Y-16619D01*
X17330Y-13819D02*
X17330Y-14019D01*
X17330Y-14019D02*
X16930Y-14019D01*
X16930Y-14019D02*
X16930Y-16619D01*
X16930Y-16619D02*
X17730Y-16619D01*
X17730Y-16619D02*
X17730Y-14019D01*
X17730Y-14019D02*
X17330Y-14019D01*
X17130Y-16619D02*
X16930Y-16419D01*
X16330Y-16819D02*
X16330Y-16619D01*
X16330Y-13819D02*
X16330Y-14019D01*
X16330Y-14019D02*
X15930Y-14019D01*
X15930Y-14019D02*
X15930Y-16619D01*
X15930Y-16619D02*
X16730Y-16619D01*
X16730Y-16619D02*
X16730Y-14019D01*
X16730Y-14019D02*
X16330Y-14019D01*
X16130Y-16619D02*
X15930Y-16419D01*
X41430Y-16769D02*
X41430Y-16569D01*
X41430Y-13769D02*
X41430Y-13969D01*
X41430Y-13969D02*
X41030Y-13969D01*
X41030Y-13969D02*
X41030Y-16569D01*
X41030Y-16569D02*
X41830Y-16569D01*
X41830Y-16569D02*
X41830Y-13969D01*
X41830Y-13969D02*
X41430Y-13969D01*
X41230Y-16569D02*
X41030Y-16369D01*
X42430Y-16769D02*
X42430Y-16569D01*
X42430Y-13769D02*
X42430Y-13969D01*
X42430Y-13969D02*
X42030Y-13969D01*
X42030Y-13969D02*
X42030Y-16569D01*
X42030Y-16569D02*
X42830Y-16569D01*
X42830Y-16569D02*
X42830Y-13969D01*
X42830Y-13969D02*
X42430Y-13969D01*
X42230Y-16569D02*
X42030Y-16369D01*
G54D10*
X47130Y-14269D02*
G75*
G03X47130Y-14269I-200J0D01*
G74*
G01*
X45930Y-14669D02*
X47930Y-14669D01*
X47930Y-14669D02*
X47930Y-13919D01*
X47930Y-13919D02*
X45930Y-13919D01*
X45930Y-13919D02*
X45930Y-14669D01*
X46930Y-20669D02*
X45930Y-20669D01*
X45930Y-20669D02*
X45930Y-18669D01*
X45930Y-18669D02*
X47930Y-18669D01*
X47930Y-18669D02*
X47930Y-20669D01*
X47930Y-20669D02*
X46930Y-20669D01*
X43387Y-24952D02*
X50572Y-24952D01*
X50572Y-24952D02*
X50572Y-12354D01*
X50572Y-12354D02*
X43387Y-12354D01*
X43387Y-12354D02*
X43387Y-24952D01*
X33722Y-13997D02*
X33722Y-22560D01*
X33722Y-22560D02*
X32934Y-22560D01*
X32934Y-22560D02*
X32934Y-13111D01*
X32934Y-13111D02*
X33722Y-13111D01*
X33722Y-13111D02*
X33722Y-13997D01*
X33722Y-21773D02*
X40414Y-21773D01*
X40414Y-21773D02*
X40414Y-13997D01*
X40414Y-13997D02*
X33722Y-13997D01*
X53580Y-12669D02*
X52830Y-12669D01*
X52830Y-12669D02*
X52830Y-20669D01*
X52830Y-20669D02*
X53830Y-20669D01*
X53830Y-20669D02*
X53830Y-12669D01*
X53830Y-12669D02*
X53580Y-12669D01*
X54375Y-52346D02*
X53982Y-52346D01*
X54375Y-52121D02*
X54150Y-52289D01*
X53982Y-52121D02*
X54207Y-52346D01*
X54169Y-51952D02*
X54169Y-51821D01*
X54375Y-51764D02*
X54375Y-51952D01*
X53982Y-51952D01*
X53982Y-51764D01*
X54188Y-51521D02*
X54375Y-51521D01*
X53982Y-51652D02*
X54188Y-51521D01*
X53982Y-51389D01*
X54375Y-51052D02*
X54375Y-51277D01*
X54375Y-51164D02*
X53982Y-51164D01*
X54038Y-51202D01*
X54075Y-51239D01*
X54094Y-51277D01*
X36690Y-53099D02*
X36296Y-53099D01*
X36296Y-52949D01*
X36315Y-52911D01*
X36333Y-52893D01*
X36371Y-52874D01*
X36427Y-52874D01*
X36465Y-52893D01*
X36483Y-52911D01*
X36502Y-52949D01*
X36502Y-53099D01*
X36690Y-52499D02*
X36690Y-52724D01*
X36690Y-52611D02*
X36296Y-52611D01*
X36352Y-52649D01*
X36390Y-52686D01*
X36408Y-52724D01*
G54D12*
X45714Y-58533D02*
X45014Y-58533D01*
X45514Y-58383D01*
X45014Y-58233D01*
X45714Y-58233D01*
X45647Y-57762D02*
X45680Y-57783D01*
X45714Y-57847D01*
X45714Y-57890D01*
X45680Y-57955D01*
X45614Y-57997D01*
X45547Y-58019D01*
X45414Y-58040D01*
X45314Y-58040D01*
X45180Y-58019D01*
X45114Y-57997D01*
X45047Y-57955D01*
X45014Y-57890D01*
X45014Y-57847D01*
X45047Y-57783D01*
X45080Y-57762D01*
X45014Y-57569D02*
X45580Y-57569D01*
X45647Y-57547D01*
X45680Y-57526D01*
X45714Y-57483D01*
X45714Y-57397D01*
X45680Y-57355D01*
X45647Y-57333D01*
X45580Y-57312D01*
X45014Y-57312D01*
X45714Y-56862D02*
X45714Y-57119D01*
X45714Y-56990D02*
X45014Y-56990D01*
X45114Y-57033D01*
X45180Y-57076D01*
X45214Y-57119D01*
G54D13*
G54D11*
X42703Y-50391D02*
X42441Y-50558D01*
X42703Y-50677D02*
X42153Y-50677D01*
X42153Y-50487D01*
X42179Y-50439D01*
X42205Y-50415D01*
X42258Y-50391D01*
X42336Y-50391D01*
X42389Y-50415D01*
X42415Y-50439D01*
X42441Y-50487D01*
X42441Y-50677D01*
X42703Y-49915D02*
X42703Y-50201D01*
X42703Y-50058D02*
X42153Y-50058D01*
X42231Y-50106D01*
X42284Y-50153D01*
X42310Y-50201D01*
X41703Y-50391D02*
X41441Y-50558D01*
X41703Y-50677D02*
X41153Y-50677D01*
X41153Y-50487D01*
X41179Y-50439D01*
X41205Y-50415D01*
X41258Y-50391D01*
X41336Y-50391D01*
X41389Y-50415D01*
X41415Y-50439D01*
X41441Y-50487D01*
X41441Y-50677D01*
X41205Y-50201D02*
X41179Y-50177D01*
X41153Y-50130D01*
X41153Y-50011D01*
X41179Y-49963D01*
X41205Y-49939D01*
X41258Y-49915D01*
X41310Y-49915D01*
X41389Y-49939D01*
X41703Y-50225D01*
X41703Y-49915D01*
X16603Y-50441D02*
X16341Y-50608D01*
X16603Y-50727D02*
X16053Y-50727D01*
X16053Y-50537D01*
X16079Y-50489D01*
X16105Y-50465D01*
X16158Y-50441D01*
X16236Y-50441D01*
X16289Y-50465D01*
X16315Y-50489D01*
X16341Y-50537D01*
X16341Y-50727D01*
X16105Y-50251D02*
X16079Y-50227D01*
X16053Y-50180D01*
X16053Y-50061D01*
X16079Y-50013D01*
X16105Y-49989D01*
X16158Y-49965D01*
X16210Y-49965D01*
X16289Y-49989D01*
X16603Y-50275D01*
X16603Y-49965D01*
X17603Y-50441D02*
X17341Y-50608D01*
X17603Y-50727D02*
X17053Y-50727D01*
X17053Y-50537D01*
X17079Y-50489D01*
X17105Y-50465D01*
X17158Y-50441D01*
X17236Y-50441D01*
X17289Y-50465D01*
X17315Y-50489D01*
X17341Y-50537D01*
X17341Y-50727D01*
X17603Y-49965D02*
X17603Y-50251D01*
X17603Y-50108D02*
X17053Y-50108D01*
X17131Y-50156D01*
X17184Y-50203D01*
X17210Y-50251D01*
G54D12*
X20614Y-58583D02*
X19914Y-58583D01*
X20414Y-58433D01*
X19914Y-58283D01*
X20614Y-58283D01*
X20547Y-57812D02*
X20580Y-57833D01*
X20614Y-57897D01*
X20614Y-57940D01*
X20580Y-58005D01*
X20514Y-58047D01*
X20447Y-58069D01*
X20314Y-58090D01*
X20214Y-58090D01*
X20080Y-58069D01*
X20014Y-58047D01*
X19947Y-58005D01*
X19914Y-57940D01*
X19914Y-57897D01*
X19947Y-57833D01*
X19980Y-57812D01*
X19914Y-57619D02*
X20480Y-57619D01*
X20547Y-57597D01*
X20580Y-57576D01*
X20614Y-57533D01*
X20614Y-57447D01*
X20580Y-57405D01*
X20547Y-57383D01*
X20480Y-57362D01*
X19914Y-57362D01*
X20614Y-56912D02*
X20614Y-57169D01*
X20614Y-57040D02*
X19914Y-57040D01*
X20014Y-57083D01*
X20080Y-57126D01*
X20114Y-57169D01*
G54D13*
G54D10*
X10408Y-51180D02*
X10015Y-51180D01*
X10015Y-51030D01*
X10034Y-50993D01*
X10052Y-50974D01*
X10090Y-50955D01*
X10146Y-50955D01*
X10183Y-50974D01*
X10202Y-50993D01*
X10221Y-51030D01*
X10221Y-51180D01*
X10408Y-50580D02*
X10408Y-50805D01*
X10408Y-50693D02*
X10015Y-50693D01*
X10071Y-50730D01*
X10108Y-50768D01*
X10127Y-50805D01*
X29275Y-52396D02*
X28882Y-52396D01*
X29275Y-52171D02*
X29050Y-52339D01*
X28882Y-52171D02*
X29107Y-52396D01*
X29069Y-52002D02*
X29069Y-51871D01*
X29275Y-51814D02*
X29275Y-52002D01*
X28882Y-52002D01*
X28882Y-51814D01*
X29088Y-51571D02*
X29275Y-51571D01*
X28882Y-51702D02*
X29088Y-51571D01*
X28882Y-51439D01*
X29275Y-51102D02*
X29275Y-51327D01*
X29275Y-51214D02*
X28882Y-51214D01*
X28938Y-51252D01*
X28975Y-51289D01*
X28994Y-51327D01*
G54D11*
X67303Y-50391D02*
X67041Y-50558D01*
X67303Y-50677D02*
X66753Y-50677D01*
X66753Y-50487D01*
X66779Y-50439D01*
X66805Y-50415D01*
X66858Y-50391D01*
X66936Y-50391D01*
X66989Y-50415D01*
X67015Y-50439D01*
X67041Y-50487D01*
X67041Y-50677D01*
X66805Y-50201D02*
X66779Y-50177D01*
X66753Y-50130D01*
X66753Y-50011D01*
X66779Y-49963D01*
X66805Y-49939D01*
X66858Y-49915D01*
X66910Y-49915D01*
X66989Y-49939D01*
X67303Y-50225D01*
X67303Y-49915D01*
X68303Y-50391D02*
X68041Y-50558D01*
X68303Y-50677D02*
X67753Y-50677D01*
X67753Y-50487D01*
X67779Y-50439D01*
X67805Y-50415D01*
X67858Y-50391D01*
X67936Y-50391D01*
X67989Y-50415D01*
X68015Y-50439D01*
X68041Y-50487D01*
X68041Y-50677D01*
X68303Y-49915D02*
X68303Y-50201D01*
X68303Y-50058D02*
X67753Y-50058D01*
X67831Y-50106D01*
X67884Y-50153D01*
X67910Y-50201D01*
G54D12*
X71314Y-58533D02*
X70614Y-58533D01*
X71114Y-58383D01*
X70614Y-58233D01*
X71314Y-58233D01*
X71247Y-57762D02*
X71280Y-57783D01*
X71314Y-57847D01*
X71314Y-57890D01*
X71280Y-57955D01*
X71214Y-57997D01*
X71147Y-58019D01*
X71014Y-58040D01*
X70914Y-58040D01*
X70780Y-58019D01*
X70714Y-57997D01*
X70647Y-57955D01*
X70614Y-57890D01*
X70614Y-57847D01*
X70647Y-57783D01*
X70680Y-57762D01*
X70614Y-57569D02*
X71180Y-57569D01*
X71247Y-57547D01*
X71280Y-57526D01*
X71314Y-57483D01*
X71314Y-57397D01*
X71280Y-57355D01*
X71247Y-57333D01*
X71180Y-57312D01*
X70614Y-57312D01*
X71314Y-56862D02*
X71314Y-57119D01*
X71314Y-56990D02*
X70614Y-56990D01*
X70714Y-57033D01*
X70780Y-57076D01*
X70814Y-57119D01*
G54D13*
G54D10*
X62290Y-53099D02*
X61896Y-53099D01*
X61896Y-52949D01*
X61915Y-52911D01*
X61933Y-52893D01*
X61971Y-52874D01*
X62027Y-52874D01*
X62065Y-52893D01*
X62083Y-52911D01*
X62102Y-52949D01*
X62102Y-53099D01*
X62290Y-52499D02*
X62290Y-52724D01*
X62290Y-52611D02*
X61896Y-52611D01*
X61952Y-52649D01*
X61990Y-52686D01*
X62008Y-52724D01*
X79975Y-52346D02*
X79582Y-52346D01*
X79975Y-52121D02*
X79750Y-52289D01*
X79582Y-52121D02*
X79807Y-52346D01*
X79769Y-51952D02*
X79769Y-51821D01*
X79975Y-51764D02*
X79975Y-51952D01*
X79582Y-51952D01*
X79582Y-51764D01*
X79788Y-51521D02*
X79975Y-51521D01*
X79582Y-51652D02*
X79788Y-51521D01*
X79582Y-51389D01*
X79975Y-51052D02*
X79975Y-51277D01*
X79975Y-51164D02*
X79582Y-51164D01*
X79638Y-51202D01*
X79675Y-51239D01*
X79694Y-51277D01*
X80038Y-69602D02*
X79644Y-69602D01*
X80038Y-69377D02*
X79813Y-69546D01*
X79644Y-69377D02*
X79869Y-69602D01*
X79832Y-69208D02*
X79832Y-69077D01*
X80038Y-69021D02*
X80038Y-69208D01*
X79644Y-69208D01*
X79644Y-69021D01*
X79851Y-68777D02*
X80038Y-68777D01*
X79644Y-68908D02*
X79851Y-68777D01*
X79644Y-68646D01*
X80038Y-68308D02*
X80038Y-68533D01*
X80038Y-68421D02*
X79644Y-68421D01*
X79701Y-68458D01*
X79738Y-68496D01*
X79757Y-68533D01*
X62352Y-70355D02*
X61958Y-70355D01*
X61958Y-70205D01*
X61977Y-70168D01*
X61996Y-70149D01*
X62033Y-70130D01*
X62090Y-70130D01*
X62127Y-70149D01*
X62146Y-70168D01*
X62165Y-70205D01*
X62165Y-70355D01*
X62352Y-69755D02*
X62352Y-69980D01*
X62352Y-69868D02*
X61958Y-69868D01*
X62015Y-69905D01*
X62052Y-69943D01*
X62071Y-69980D01*
G54D12*
X71376Y-75789D02*
X70676Y-75789D01*
X71176Y-75639D01*
X70676Y-75489D01*
X71376Y-75489D01*
X71309Y-75018D02*
X71343Y-75039D01*
X71376Y-75104D01*
X71376Y-75147D01*
X71343Y-75211D01*
X71276Y-75254D01*
X71209Y-75275D01*
X71076Y-75297D01*
X70976Y-75297D01*
X70843Y-75275D01*
X70776Y-75254D01*
X70709Y-75211D01*
X70676Y-75147D01*
X70676Y-75104D01*
X70709Y-75039D01*
X70743Y-75018D01*
X70676Y-74825D02*
X71243Y-74825D01*
X71309Y-74804D01*
X71343Y-74782D01*
X71376Y-74739D01*
X71376Y-74654D01*
X71343Y-74611D01*
X71309Y-74589D01*
X71243Y-74568D01*
X70676Y-74568D01*
X71376Y-74118D02*
X71376Y-74375D01*
X71376Y-74247D02*
X70676Y-74247D01*
X70776Y-74289D01*
X70843Y-74332D01*
X70876Y-74375D01*
G54D13*
G54D11*
X68365Y-67648D02*
X68104Y-67814D01*
X68365Y-67934D02*
X67815Y-67934D01*
X67815Y-67743D01*
X67842Y-67695D01*
X67868Y-67672D01*
X67920Y-67648D01*
X67999Y-67648D01*
X68051Y-67672D01*
X68077Y-67695D01*
X68104Y-67743D01*
X68104Y-67934D01*
X68365Y-67172D02*
X68365Y-67457D01*
X68365Y-67314D02*
X67815Y-67314D01*
X67894Y-67362D01*
X67946Y-67410D01*
X67973Y-67457D01*
X67365Y-67648D02*
X67104Y-67814D01*
X67365Y-67934D02*
X66815Y-67934D01*
X66815Y-67743D01*
X66842Y-67695D01*
X66868Y-67672D01*
X66920Y-67648D01*
X66999Y-67648D01*
X67051Y-67672D01*
X67077Y-67695D01*
X67104Y-67743D01*
X67104Y-67934D01*
X66868Y-67457D02*
X66842Y-67434D01*
X66815Y-67386D01*
X66815Y-67267D01*
X66842Y-67219D01*
X66868Y-67195D01*
X66920Y-67172D01*
X66973Y-67172D01*
X67051Y-67195D01*
X67365Y-67481D01*
X67365Y-67172D01*
G54D10*
X29338Y-69652D02*
X28944Y-69652D01*
X29338Y-69427D02*
X29113Y-69596D01*
X28944Y-69427D02*
X29169Y-69652D01*
X29132Y-69258D02*
X29132Y-69127D01*
X29338Y-69071D02*
X29338Y-69258D01*
X28944Y-69258D01*
X28944Y-69071D01*
X29151Y-68827D02*
X29338Y-68827D01*
X28944Y-68958D02*
X29151Y-68827D01*
X28944Y-68696D01*
X29338Y-68358D02*
X29338Y-68583D01*
X29338Y-68471D02*
X28944Y-68471D01*
X29001Y-68508D01*
X29038Y-68546D01*
X29057Y-68583D01*
X10471Y-68437D02*
X10077Y-68437D01*
X10077Y-68287D01*
X10096Y-68249D01*
X10115Y-68230D01*
X10152Y-68212D01*
X10209Y-68212D01*
X10246Y-68230D01*
X10265Y-68249D01*
X10284Y-68287D01*
X10284Y-68437D01*
X10471Y-67837D02*
X10471Y-68062D01*
X10471Y-67949D02*
X10077Y-67949D01*
X10134Y-67987D01*
X10171Y-68024D01*
X10190Y-68062D01*
G54D12*
X20676Y-75839D02*
X19976Y-75839D01*
X20476Y-75689D01*
X19976Y-75539D01*
X20676Y-75539D01*
X20609Y-75068D02*
X20643Y-75089D01*
X20676Y-75154D01*
X20676Y-75197D01*
X20643Y-75261D01*
X20576Y-75304D01*
X20509Y-75325D01*
X20376Y-75347D01*
X20276Y-75347D01*
X20143Y-75325D01*
X20076Y-75304D01*
X20009Y-75261D01*
X19976Y-75197D01*
X19976Y-75154D01*
X20009Y-75089D01*
X20043Y-75068D01*
X19976Y-74875D02*
X20543Y-74875D01*
X20609Y-74854D01*
X20643Y-74832D01*
X20676Y-74789D01*
X20676Y-74704D01*
X20643Y-74661D01*
X20609Y-74639D01*
X20543Y-74618D01*
X19976Y-74618D01*
X20676Y-74168D02*
X20676Y-74425D01*
X20676Y-74297D02*
X19976Y-74297D01*
X20076Y-74339D01*
X20143Y-74382D01*
X20176Y-74425D01*
G54D13*
G54D11*
X17665Y-67698D02*
X17404Y-67864D01*
X17665Y-67984D02*
X17115Y-67984D01*
X17115Y-67793D01*
X17142Y-67745D01*
X17168Y-67722D01*
X17220Y-67698D01*
X17299Y-67698D01*
X17351Y-67722D01*
X17377Y-67745D01*
X17404Y-67793D01*
X17404Y-67984D01*
X17665Y-67222D02*
X17665Y-67507D01*
X17665Y-67364D02*
X17115Y-67364D01*
X17194Y-67412D01*
X17246Y-67460D01*
X17273Y-67507D01*
X16665Y-67698D02*
X16404Y-67864D01*
X16665Y-67984D02*
X16115Y-67984D01*
X16115Y-67793D01*
X16142Y-67745D01*
X16168Y-67722D01*
X16220Y-67698D01*
X16299Y-67698D01*
X16351Y-67722D01*
X16377Y-67745D01*
X16404Y-67793D01*
X16404Y-67984D01*
X16168Y-67507D02*
X16142Y-67484D01*
X16115Y-67436D01*
X16115Y-67317D01*
X16142Y-67269D01*
X16168Y-67245D01*
X16220Y-67222D01*
X16273Y-67222D01*
X16351Y-67245D01*
X16665Y-67531D01*
X16665Y-67222D01*
X41765Y-67648D02*
X41504Y-67814D01*
X41765Y-67934D02*
X41215Y-67934D01*
X41215Y-67743D01*
X41242Y-67695D01*
X41268Y-67672D01*
X41320Y-67648D01*
X41399Y-67648D01*
X41451Y-67672D01*
X41477Y-67695D01*
X41504Y-67743D01*
X41504Y-67934D01*
X41268Y-67457D02*
X41242Y-67434D01*
X41215Y-67386D01*
X41215Y-67267D01*
X41242Y-67219D01*
X41268Y-67195D01*
X41320Y-67172D01*
X41373Y-67172D01*
X41451Y-67195D01*
X41765Y-67481D01*
X41765Y-67172D01*
X42765Y-67648D02*
X42504Y-67814D01*
X42765Y-67934D02*
X42215Y-67934D01*
X42215Y-67743D01*
X42242Y-67695D01*
X42268Y-67672D01*
X42320Y-67648D01*
X42399Y-67648D01*
X42451Y-67672D01*
X42477Y-67695D01*
X42504Y-67743D01*
X42504Y-67934D01*
X42765Y-67172D02*
X42765Y-67457D01*
X42765Y-67314D02*
X42215Y-67314D01*
X42294Y-67362D01*
X42346Y-67410D01*
X42373Y-67457D01*
G54D12*
X45776Y-75789D02*
X45076Y-75789D01*
X45576Y-75639D01*
X45076Y-75489D01*
X45776Y-75489D01*
X45709Y-75018D02*
X45743Y-75039D01*
X45776Y-75104D01*
X45776Y-75147D01*
X45743Y-75211D01*
X45676Y-75254D01*
X45609Y-75275D01*
X45476Y-75297D01*
X45376Y-75297D01*
X45243Y-75275D01*
X45176Y-75254D01*
X45109Y-75211D01*
X45076Y-75147D01*
X45076Y-75104D01*
X45109Y-75039D01*
X45143Y-75018D01*
X45076Y-74825D02*
X45643Y-74825D01*
X45709Y-74804D01*
X45743Y-74782D01*
X45776Y-74739D01*
X45776Y-74654D01*
X45743Y-74611D01*
X45709Y-74589D01*
X45643Y-74568D01*
X45076Y-74568D01*
X45776Y-74118D02*
X45776Y-74375D01*
X45776Y-74247D02*
X45076Y-74247D01*
X45176Y-74289D01*
X45243Y-74332D01*
X45276Y-74375D01*
G54D13*
G54D10*
X36752Y-70355D02*
X36358Y-70355D01*
X36358Y-70205D01*
X36377Y-70168D01*
X36396Y-70149D01*
X36433Y-70130D01*
X36490Y-70130D01*
X36527Y-70149D01*
X36546Y-70168D01*
X36565Y-70205D01*
X36565Y-70355D01*
X36752Y-69755D02*
X36752Y-69980D01*
X36752Y-69868D02*
X36358Y-69868D01*
X36415Y-69905D01*
X36452Y-69943D01*
X36471Y-69980D01*
X54438Y-69602D02*
X54044Y-69602D01*
X54438Y-69377D02*
X54213Y-69546D01*
X54044Y-69377D02*
X54269Y-69602D01*
X54232Y-69208D02*
X54232Y-69077D01*
X54438Y-69021D02*
X54438Y-69208D01*
X54044Y-69208D01*
X54044Y-69021D01*
X54251Y-68777D02*
X54438Y-68777D01*
X54044Y-68908D02*
X54251Y-68777D01*
X54044Y-68646D01*
X54438Y-68308D02*
X54438Y-68533D01*
X54438Y-68421D02*
X54044Y-68421D01*
X54101Y-68458D01*
X54138Y-68496D01*
X54157Y-68533D01*
X54438Y-34563D02*
X54044Y-34563D01*
X54438Y-34338D02*
X54213Y-34506D01*
X54044Y-34338D02*
X54269Y-34563D01*
X54232Y-34169D02*
X54232Y-34038D01*
X54438Y-33981D02*
X54438Y-34169D01*
X54044Y-34169D01*
X54044Y-33981D01*
X54251Y-33738D02*
X54438Y-33738D01*
X54044Y-33869D02*
X54251Y-33738D01*
X54044Y-33606D01*
X54438Y-33269D02*
X54438Y-33494D01*
X54438Y-33381D02*
X54044Y-33381D01*
X54101Y-33419D01*
X54138Y-33456D01*
X54157Y-33494D01*
X36752Y-35316D02*
X36358Y-35316D01*
X36358Y-35166D01*
X36377Y-35128D01*
X36396Y-35109D01*
X36433Y-35091D01*
X36490Y-35091D01*
X36527Y-35109D01*
X36546Y-35128D01*
X36565Y-35166D01*
X36565Y-35316D01*
X36752Y-34716D02*
X36752Y-34941D01*
X36752Y-34828D02*
X36358Y-34828D01*
X36415Y-34866D01*
X36452Y-34903D01*
X36471Y-34941D01*
G54D12*
X45776Y-40750D02*
X45076Y-40750D01*
X45576Y-40600D01*
X45076Y-40450D01*
X45776Y-40450D01*
X45709Y-39979D02*
X45743Y-40000D01*
X45776Y-40064D01*
X45776Y-40107D01*
X45743Y-40172D01*
X45676Y-40214D01*
X45609Y-40236D01*
X45476Y-40257D01*
X45376Y-40257D01*
X45243Y-40236D01*
X45176Y-40214D01*
X45109Y-40172D01*
X45076Y-40107D01*
X45076Y-40064D01*
X45109Y-40000D01*
X45143Y-39979D01*
X45076Y-39786D02*
X45643Y-39786D01*
X45709Y-39764D01*
X45743Y-39743D01*
X45776Y-39700D01*
X45776Y-39614D01*
X45743Y-39572D01*
X45709Y-39550D01*
X45643Y-39529D01*
X45076Y-39529D01*
X45776Y-39079D02*
X45776Y-39336D01*
X45776Y-39207D02*
X45076Y-39207D01*
X45176Y-39250D01*
X45243Y-39293D01*
X45276Y-39336D01*
G54D13*
G54D11*
X42765Y-32608D02*
X42504Y-32775D01*
X42765Y-32894D02*
X42215Y-32894D01*
X42215Y-32704D01*
X42242Y-32656D01*
X42268Y-32632D01*
X42320Y-32608D01*
X42399Y-32608D01*
X42451Y-32632D01*
X42477Y-32656D01*
X42504Y-32704D01*
X42504Y-32894D01*
X42765Y-32132D02*
X42765Y-32418D01*
X42765Y-32275D02*
X42215Y-32275D01*
X42294Y-32323D01*
X42346Y-32370D01*
X42373Y-32418D01*
X41765Y-32608D02*
X41504Y-32775D01*
X41765Y-32894D02*
X41215Y-32894D01*
X41215Y-32704D01*
X41242Y-32656D01*
X41268Y-32632D01*
X41320Y-32608D01*
X41399Y-32608D01*
X41451Y-32632D01*
X41477Y-32656D01*
X41504Y-32704D01*
X41504Y-32894D01*
X41268Y-32418D02*
X41242Y-32394D01*
X41215Y-32347D01*
X41215Y-32227D01*
X41242Y-32180D01*
X41268Y-32156D01*
X41320Y-32132D01*
X41373Y-32132D01*
X41451Y-32156D01*
X41765Y-32442D01*
X41765Y-32132D01*
X16665Y-32658D02*
X16404Y-32825D01*
X16665Y-32944D02*
X16115Y-32944D01*
X16115Y-32754D01*
X16142Y-32706D01*
X16168Y-32682D01*
X16220Y-32658D01*
X16299Y-32658D01*
X16351Y-32682D01*
X16377Y-32706D01*
X16404Y-32754D01*
X16404Y-32944D01*
X16168Y-32468D02*
X16142Y-32444D01*
X16115Y-32397D01*
X16115Y-32277D01*
X16142Y-32230D01*
X16168Y-32206D01*
X16220Y-32182D01*
X16273Y-32182D01*
X16351Y-32206D01*
X16665Y-32492D01*
X16665Y-32182D01*
X17665Y-32658D02*
X17404Y-32825D01*
X17665Y-32944D02*
X17115Y-32944D01*
X17115Y-32754D01*
X17142Y-32706D01*
X17168Y-32682D01*
X17220Y-32658D01*
X17299Y-32658D01*
X17351Y-32682D01*
X17377Y-32706D01*
X17404Y-32754D01*
X17404Y-32944D01*
X17665Y-32182D02*
X17665Y-32468D01*
X17665Y-32325D02*
X17115Y-32325D01*
X17194Y-32373D01*
X17246Y-32420D01*
X17273Y-32468D01*
G54D12*
X20676Y-40800D02*
X19976Y-40800D01*
X20476Y-40650D01*
X19976Y-40500D01*
X20676Y-40500D01*
X20609Y-40029D02*
X20643Y-40050D01*
X20676Y-40114D01*
X20676Y-40157D01*
X20643Y-40222D01*
X20576Y-40264D01*
X20509Y-40286D01*
X20376Y-40307D01*
X20276Y-40307D01*
X20143Y-40286D01*
X20076Y-40264D01*
X20009Y-40222D01*
X19976Y-40157D01*
X19976Y-40114D01*
X20009Y-40050D01*
X20043Y-40029D01*
X19976Y-39836D02*
X20543Y-39836D01*
X20609Y-39814D01*
X20643Y-39793D01*
X20676Y-39750D01*
X20676Y-39664D01*
X20643Y-39622D01*
X20609Y-39600D01*
X20543Y-39579D01*
X19976Y-39579D01*
X20676Y-39129D02*
X20676Y-39386D01*
X20676Y-39257D02*
X19976Y-39257D01*
X20076Y-39300D01*
X20143Y-39343D01*
X20176Y-39386D01*
G54D13*
G54D10*
X11652Y-35366D02*
X11258Y-35366D01*
X11258Y-35216D01*
X11277Y-35178D01*
X11296Y-35159D01*
X11333Y-35141D01*
X11390Y-35141D01*
X11427Y-35159D01*
X11446Y-35178D01*
X11465Y-35216D01*
X11465Y-35366D01*
X11652Y-34766D02*
X11652Y-34991D01*
X11652Y-34878D02*
X11258Y-34878D01*
X11315Y-34916D01*
X11352Y-34953D01*
X11371Y-34991D01*
X29338Y-34613D02*
X28944Y-34613D01*
X29338Y-34388D02*
X29113Y-34556D01*
X28944Y-34388D02*
X29169Y-34613D01*
X29132Y-34219D02*
X29132Y-34088D01*
X29338Y-34031D02*
X29338Y-34219D01*
X28944Y-34219D01*
X28944Y-34031D01*
X29151Y-33788D02*
X29338Y-33788D01*
X28944Y-33919D02*
X29151Y-33788D01*
X28944Y-33656D01*
X29338Y-33319D02*
X29338Y-33544D01*
X29338Y-33431D02*
X28944Y-33431D01*
X29001Y-33469D01*
X29038Y-33506D01*
X29057Y-33544D01*
G54D11*
X67365Y-32608D02*
X67104Y-32775D01*
X67365Y-32894D02*
X66815Y-32894D01*
X66815Y-32704D01*
X66842Y-32656D01*
X66868Y-32632D01*
X66920Y-32608D01*
X66999Y-32608D01*
X67051Y-32632D01*
X67077Y-32656D01*
X67104Y-32704D01*
X67104Y-32894D01*
X66868Y-32418D02*
X66842Y-32394D01*
X66815Y-32347D01*
X66815Y-32227D01*
X66842Y-32180D01*
X66868Y-32156D01*
X66920Y-32132D01*
X66973Y-32132D01*
X67051Y-32156D01*
X67365Y-32442D01*
X67365Y-32132D01*
X68365Y-32608D02*
X68104Y-32775D01*
X68365Y-32894D02*
X67815Y-32894D01*
X67815Y-32704D01*
X67842Y-32656D01*
X67868Y-32632D01*
X67920Y-32608D01*
X67999Y-32608D01*
X68051Y-32632D01*
X68077Y-32656D01*
X68104Y-32704D01*
X68104Y-32894D01*
X68365Y-32132D02*
X68365Y-32418D01*
X68365Y-32275D02*
X67815Y-32275D01*
X67894Y-32323D01*
X67946Y-32370D01*
X67973Y-32418D01*
G54D12*
X71376Y-40750D02*
X70676Y-40750D01*
X71176Y-40600D01*
X70676Y-40450D01*
X71376Y-40450D01*
X71309Y-39979D02*
X71343Y-40000D01*
X71376Y-40064D01*
X71376Y-40107D01*
X71343Y-40172D01*
X71276Y-40214D01*
X71209Y-40236D01*
X71076Y-40257D01*
X70976Y-40257D01*
X70843Y-40236D01*
X70776Y-40214D01*
X70709Y-40172D01*
X70676Y-40107D01*
X70676Y-40064D01*
X70709Y-40000D01*
X70743Y-39979D01*
X70676Y-39786D02*
X71243Y-39786D01*
X71309Y-39764D01*
X71343Y-39743D01*
X71376Y-39700D01*
X71376Y-39614D01*
X71343Y-39572D01*
X71309Y-39550D01*
X71243Y-39529D01*
X70676Y-39529D01*
X71376Y-39079D02*
X71376Y-39336D01*
X71376Y-39207D02*
X70676Y-39207D01*
X70776Y-39250D01*
X70843Y-39293D01*
X70876Y-39336D01*
G54D13*
G54D10*
X62352Y-35316D02*
X61958Y-35316D01*
X61958Y-35166D01*
X61977Y-35128D01*
X61996Y-35109D01*
X62033Y-35091D01*
X62090Y-35091D01*
X62127Y-35109D01*
X62146Y-35128D01*
X62165Y-35166D01*
X62165Y-35316D01*
X62352Y-34716D02*
X62352Y-34941D01*
X62352Y-34828D02*
X61958Y-34828D01*
X62015Y-34866D01*
X62052Y-34903D01*
X62071Y-34941D01*
X80038Y-34563D02*
X79644Y-34563D01*
X80038Y-34338D02*
X79813Y-34506D01*
X79644Y-34338D02*
X79869Y-34563D01*
X79832Y-34169D02*
X79832Y-34038D01*
X80038Y-33981D02*
X80038Y-34169D01*
X79644Y-34169D01*
X79644Y-33981D01*
X79851Y-33738D02*
X80038Y-33738D01*
X79644Y-33869D02*
X79851Y-33738D01*
X79644Y-33606D01*
X80038Y-33269D02*
X80038Y-33494D01*
X80038Y-33381D02*
X79644Y-33381D01*
X79701Y-33419D01*
X79738Y-33456D01*
X79757Y-33494D01*
X79975Y-17306D02*
X79582Y-17306D01*
X79975Y-17081D02*
X79750Y-17250D01*
X79582Y-17081D02*
X79807Y-17306D01*
X79769Y-16913D02*
X79769Y-16781D01*
X79975Y-16725D02*
X79975Y-16913D01*
X79582Y-16913D01*
X79582Y-16725D01*
X79788Y-16481D02*
X79975Y-16481D01*
X79582Y-16613D02*
X79788Y-16481D01*
X79582Y-16350D01*
X79975Y-16013D02*
X79975Y-16238D01*
X79975Y-16125D02*
X79582Y-16125D01*
X79638Y-16163D01*
X79675Y-16200D01*
X79694Y-16238D01*
X62290Y-18059D02*
X61896Y-18059D01*
X61896Y-17909D01*
X61915Y-17872D01*
X61933Y-17853D01*
X61971Y-17834D01*
X62027Y-17834D01*
X62065Y-17853D01*
X62083Y-17872D01*
X62102Y-17909D01*
X62102Y-18059D01*
X62290Y-17459D02*
X62290Y-17684D01*
X62290Y-17572D02*
X61896Y-17572D01*
X61952Y-17609D01*
X61990Y-17647D01*
X62008Y-17684D01*
G54D12*
X71314Y-23494D02*
X70614Y-23494D01*
X71114Y-23344D01*
X70614Y-23194D01*
X71314Y-23194D01*
X71247Y-22722D02*
X71280Y-22744D01*
X71314Y-22808D01*
X71314Y-22851D01*
X71280Y-22915D01*
X71214Y-22958D01*
X71147Y-22980D01*
X71014Y-23001D01*
X70914Y-23001D01*
X70780Y-22980D01*
X70714Y-22958D01*
X70647Y-22915D01*
X70614Y-22851D01*
X70614Y-22808D01*
X70647Y-22744D01*
X70680Y-22722D01*
X70614Y-22530D02*
X71180Y-22530D01*
X71247Y-22508D01*
X71280Y-22487D01*
X71314Y-22444D01*
X71314Y-22358D01*
X71280Y-22315D01*
X71247Y-22294D01*
X71180Y-22272D01*
X70614Y-22272D01*
X71314Y-21822D02*
X71314Y-22080D01*
X71314Y-21951D02*
X70614Y-21951D01*
X70714Y-21994D01*
X70780Y-22037D01*
X70814Y-22080D01*
G54D13*
G54D11*
X68303Y-15352D02*
X68041Y-15519D01*
X68303Y-15638D02*
X67753Y-15638D01*
X67753Y-15447D01*
X67779Y-15400D01*
X67805Y-15376D01*
X67858Y-15352D01*
X67936Y-15352D01*
X67989Y-15376D01*
X68015Y-15400D01*
X68041Y-15447D01*
X68041Y-15638D01*
X68303Y-14876D02*
X68303Y-15162D01*
X68303Y-15019D02*
X67753Y-15019D01*
X67831Y-15066D01*
X67884Y-15114D01*
X67910Y-15162D01*
X67303Y-15352D02*
X67041Y-15519D01*
X67303Y-15638D02*
X66753Y-15638D01*
X66753Y-15447D01*
X66779Y-15400D01*
X66805Y-15376D01*
X66858Y-15352D01*
X66936Y-15352D01*
X66989Y-15376D01*
X67015Y-15400D01*
X67041Y-15447D01*
X67041Y-15638D01*
X66805Y-15162D02*
X66779Y-15138D01*
X66753Y-15090D01*
X66753Y-14971D01*
X66779Y-14924D01*
X66805Y-14900D01*
X66858Y-14876D01*
X66910Y-14876D01*
X66989Y-14900D01*
X67303Y-15185D01*
X67303Y-14876D01*
G54D10*
X29275Y-17356D02*
X28882Y-17356D01*
X29275Y-17131D02*
X29050Y-17300D01*
X28882Y-17131D02*
X29107Y-17356D01*
X29069Y-16963D02*
X29069Y-16831D01*
X29275Y-16775D02*
X29275Y-16963D01*
X28882Y-16963D01*
X28882Y-16775D01*
X29088Y-16531D02*
X29275Y-16531D01*
X28882Y-16663D02*
X29088Y-16531D01*
X28882Y-16400D01*
X29275Y-16063D02*
X29275Y-16288D01*
X29275Y-16175D02*
X28882Y-16175D01*
X28938Y-16213D01*
X28975Y-16250D01*
X28994Y-16288D01*
X11590Y-18109D02*
X11196Y-18109D01*
X11196Y-17959D01*
X11215Y-17922D01*
X11233Y-17903D01*
X11271Y-17884D01*
X11327Y-17884D01*
X11365Y-17903D01*
X11383Y-17922D01*
X11402Y-17959D01*
X11402Y-18109D01*
X11590Y-17509D02*
X11590Y-17734D01*
X11590Y-17622D02*
X11196Y-17622D01*
X11252Y-17659D01*
X11290Y-17697D01*
X11308Y-17734D01*
G54D12*
X20614Y-23544D02*
X19914Y-23544D01*
X20414Y-23394D01*
X19914Y-23244D01*
X20614Y-23244D01*
X20547Y-22772D02*
X20580Y-22794D01*
X20614Y-22858D01*
X20614Y-22901D01*
X20580Y-22965D01*
X20514Y-23008D01*
X20447Y-23030D01*
X20314Y-23051D01*
X20214Y-23051D01*
X20080Y-23030D01*
X20014Y-23008D01*
X19947Y-22965D01*
X19914Y-22901D01*
X19914Y-22858D01*
X19947Y-22794D01*
X19980Y-22772D01*
X19914Y-22580D02*
X20480Y-22580D01*
X20547Y-22558D01*
X20580Y-22537D01*
X20614Y-22494D01*
X20614Y-22408D01*
X20580Y-22365D01*
X20547Y-22344D01*
X20480Y-22322D01*
X19914Y-22322D01*
X20614Y-21872D02*
X20614Y-22130D01*
X20614Y-22001D02*
X19914Y-22001D01*
X20014Y-22044D01*
X20080Y-22087D01*
X20114Y-22130D01*
G54D13*
G54D11*
X17603Y-15402D02*
X17341Y-15569D01*
X17603Y-15688D02*
X17053Y-15688D01*
X17053Y-15497D01*
X17079Y-15450D01*
X17105Y-15426D01*
X17158Y-15402D01*
X17236Y-15402D01*
X17289Y-15426D01*
X17315Y-15450D01*
X17341Y-15497D01*
X17341Y-15688D01*
X17603Y-14926D02*
X17603Y-15212D01*
X17603Y-15069D02*
X17053Y-15069D01*
X17131Y-15116D01*
X17184Y-15164D01*
X17210Y-15212D01*
X16603Y-15402D02*
X16341Y-15569D01*
X16603Y-15688D02*
X16053Y-15688D01*
X16053Y-15497D01*
X16079Y-15450D01*
X16105Y-15426D01*
X16158Y-15402D01*
X16236Y-15402D01*
X16289Y-15426D01*
X16315Y-15450D01*
X16341Y-15497D01*
X16341Y-15688D01*
X16105Y-15212D02*
X16079Y-15188D01*
X16053Y-15140D01*
X16053Y-15021D01*
X16079Y-14974D01*
X16105Y-14950D01*
X16158Y-14926D01*
X16210Y-14926D01*
X16289Y-14950D01*
X16603Y-15235D01*
X16603Y-14926D01*
X41703Y-15352D02*
X41441Y-15519D01*
X41703Y-15638D02*
X41153Y-15638D01*
X41153Y-15447D01*
X41179Y-15400D01*
X41205Y-15376D01*
X41258Y-15352D01*
X41336Y-15352D01*
X41389Y-15376D01*
X41415Y-15400D01*
X41441Y-15447D01*
X41441Y-15638D01*
X41205Y-15162D02*
X41179Y-15138D01*
X41153Y-15090D01*
X41153Y-14971D01*
X41179Y-14924D01*
X41205Y-14900D01*
X41258Y-14876D01*
X41310Y-14876D01*
X41389Y-14900D01*
X41703Y-15185D01*
X41703Y-14876D01*
X42703Y-15352D02*
X42441Y-15519D01*
X42703Y-15638D02*
X42153Y-15638D01*
X42153Y-15447D01*
X42179Y-15400D01*
X42205Y-15376D01*
X42258Y-15352D01*
X42336Y-15352D01*
X42389Y-15376D01*
X42415Y-15400D01*
X42441Y-15447D01*
X42441Y-15638D01*
X42703Y-14876D02*
X42703Y-15162D01*
X42703Y-15019D02*
X42153Y-15019D01*
X42231Y-15066D01*
X42284Y-15114D01*
X42310Y-15162D01*
G54D12*
X45714Y-23494D02*
X45014Y-23494D01*
X45514Y-23344D01*
X45014Y-23194D01*
X45714Y-23194D01*
X45647Y-22722D02*
X45680Y-22744D01*
X45714Y-22808D01*
X45714Y-22851D01*
X45680Y-22915D01*
X45614Y-22958D01*
X45547Y-22980D01*
X45414Y-23001D01*
X45314Y-23001D01*
X45180Y-22980D01*
X45114Y-22958D01*
X45047Y-22915D01*
X45014Y-22851D01*
X45014Y-22808D01*
X45047Y-22744D01*
X45080Y-22722D01*
X45014Y-22530D02*
X45580Y-22530D01*
X45647Y-22508D01*
X45680Y-22487D01*
X45714Y-22444D01*
X45714Y-22358D01*
X45680Y-22315D01*
X45647Y-22294D01*
X45580Y-22272D01*
X45014Y-22272D01*
X45714Y-21822D02*
X45714Y-22080D01*
X45714Y-21951D02*
X45014Y-21951D01*
X45114Y-21994D01*
X45180Y-22037D01*
X45214Y-22080D01*
G54D13*
G54D10*
X36690Y-18059D02*
X36296Y-18059D01*
X36296Y-17909D01*
X36315Y-17872D01*
X36333Y-17853D01*
X36371Y-17834D01*
X36427Y-17834D01*
X36465Y-17853D01*
X36483Y-17872D01*
X36502Y-17909D01*
X36502Y-18059D01*
X36690Y-17459D02*
X36690Y-17684D01*
X36690Y-17572D02*
X36296Y-17572D01*
X36352Y-17609D01*
X36390Y-17647D01*
X36408Y-17684D01*
X54375Y-17306D02*
X53982Y-17306D01*
X54375Y-17081D02*
X54150Y-17250D01*
X53982Y-17081D02*
X54207Y-17306D01*
X54169Y-16913D02*
X54169Y-16781D01*
X54375Y-16725D02*
X54375Y-16913D01*
X53982Y-16913D01*
X53982Y-16725D01*
X54188Y-16481D02*
X54375Y-16481D01*
X53982Y-16613D02*
X54188Y-16481D01*
X53982Y-16350D01*
X54375Y-16013D02*
X54375Y-16238D01*
X54375Y-16125D02*
X53982Y-16125D01*
X54038Y-16163D01*
X54075Y-16200D01*
X54094Y-16238D01*
M02*
