G04 (created by PCBNEW (2013-07-07 BZR 4022)-stable) date 21/07/2014 09:22:51*
%MOIN*%
G04 Gerber Fmt 3.4, Leading zero omitted, Abs format*
%FSLAX34Y34*%
G01*
G70*
G90*
G04 APERTURE LIST*
%ADD10C,0.00590551*%
%ADD11C,0.00393701*%
G04 APERTURE END LIST*
G54D10*
G54D11*
X33630Y-46408D02*
X56130Y-46408D01*
X56130Y-46408D02*
X56130Y-61158D01*
X56130Y-61158D02*
X33630Y-61158D01*
X33630Y-61158D02*
X33630Y-60408D01*
X33630Y-46408D02*
X33630Y-61158D01*
X8530Y-46458D02*
X8530Y-61208D01*
X8530Y-61208D02*
X8530Y-60458D01*
X31030Y-61208D02*
X8530Y-61208D01*
X31030Y-46458D02*
X31030Y-61208D01*
X8530Y-46458D02*
X31030Y-46458D01*
X59230Y-46408D02*
X59230Y-61158D01*
X59230Y-61158D02*
X59230Y-60408D01*
X81730Y-61158D02*
X59230Y-61158D01*
X81730Y-46408D02*
X81730Y-61158D01*
X59230Y-46408D02*
X81730Y-46408D01*
X59293Y-63664D02*
X81793Y-63664D01*
X81793Y-63664D02*
X81793Y-78414D01*
X81793Y-78414D02*
X59293Y-78414D01*
X59293Y-78414D02*
X59293Y-77664D01*
X59293Y-63664D02*
X59293Y-78414D01*
X8593Y-63714D02*
X31093Y-63714D01*
X31093Y-63714D02*
X31093Y-78464D01*
X31093Y-78464D02*
X8593Y-78464D01*
X8593Y-78464D02*
X8593Y-77714D01*
X8593Y-63714D02*
X8593Y-78464D01*
X33693Y-63664D02*
X33693Y-78414D01*
X33693Y-78414D02*
X33693Y-77664D01*
X56193Y-78414D02*
X33693Y-78414D01*
X56193Y-63664D02*
X56193Y-78414D01*
X33693Y-63664D02*
X56193Y-63664D01*
X33693Y-28625D02*
X56193Y-28625D01*
X56193Y-28625D02*
X56193Y-43375D01*
X56193Y-43375D02*
X33693Y-43375D01*
X33693Y-43375D02*
X33693Y-42625D01*
X33693Y-28625D02*
X33693Y-43375D01*
X8593Y-28675D02*
X8593Y-43425D01*
X8593Y-43425D02*
X8593Y-42675D01*
X31093Y-43425D02*
X8593Y-43425D01*
X31093Y-28675D02*
X31093Y-43425D01*
X8593Y-28675D02*
X31093Y-28675D01*
X59293Y-28625D02*
X59293Y-43375D01*
X59293Y-43375D02*
X59293Y-42625D01*
X81793Y-43375D02*
X59293Y-43375D01*
X81793Y-28625D02*
X81793Y-43375D01*
X59293Y-28625D02*
X81793Y-28625D01*
X59230Y-11369D02*
X81730Y-11369D01*
X81730Y-11369D02*
X81730Y-26119D01*
X81730Y-26119D02*
X59230Y-26119D01*
X59230Y-26119D02*
X59230Y-25369D01*
X59230Y-11369D02*
X59230Y-26119D01*
X84443Y-5638D02*
X5843Y-5638D01*
X84443Y-84238D02*
X84443Y-5638D01*
X5843Y-84238D02*
X84443Y-84238D01*
X5843Y-5638D02*
X5843Y-84238D01*
X8530Y-11419D02*
X31030Y-11419D01*
X31030Y-11419D02*
X31030Y-26169D01*
X31030Y-26169D02*
X8530Y-26169D01*
X8530Y-26169D02*
X8530Y-25419D01*
X8530Y-11419D02*
X8530Y-26169D01*
X33630Y-11369D02*
X33630Y-26119D01*
X33630Y-26119D02*
X33630Y-25369D01*
X56130Y-26119D02*
X33630Y-26119D01*
X56130Y-11369D02*
X56130Y-26119D01*
X33630Y-11369D02*
X56130Y-11369D01*
M02*
