G04 (created by PCBNEW (2013-07-07 BZR 4022)-stable) date 09/07/2014 11:29:38*
%MOIN*%
G04 Gerber Fmt 3.4, Leading zero omitted, Abs format*
%FSLAX34Y34*%
G01*
G70*
G90*
G04 APERTURE LIST*
%ADD10C,0.00590551*%
%ADD11C,0.011811*%
%ADD12R,0.06X0.06*%
%ADD13C,0.06*%
%ADD14R,0.065X0.065*%
%ADD15C,0.065*%
%ADD16C,0.07*%
%ADD17R,0.07X0.07*%
%ADD18R,0.12X0.12*%
%ADD19C,0.055*%
%ADD20C,0.066*%
%ADD21R,0.055X0.055*%
%ADD22R,0.1X0.1*%
%ADD23C,0.1*%
%ADD24C,0.095*%
%ADD25C,0.0787402*%
%ADD26R,0.09X0.062*%
%ADD27O,0.09X0.062*%
%ADD28C,0.137795*%
%ADD29R,0.0393701X0.0393701*%
%ADD30C,0.0472441*%
G04 APERTURE END LIST*
G54D10*
G54D11*
X92173Y-58429D02*
X92088Y-58457D01*
X92060Y-58485D01*
X92032Y-58542D01*
X92032Y-58626D01*
X92060Y-58682D01*
X92088Y-58710D01*
X92145Y-58739D01*
X92370Y-58739D01*
X92370Y-58148D01*
X92173Y-58148D01*
X92117Y-58176D01*
X92088Y-58204D01*
X92060Y-58260D01*
X92060Y-58317D01*
X92088Y-58373D01*
X92117Y-58401D01*
X92173Y-58429D01*
X92370Y-58429D01*
X91695Y-58739D02*
X91751Y-58710D01*
X91779Y-58682D01*
X91807Y-58626D01*
X91807Y-58457D01*
X91779Y-58401D01*
X91751Y-58373D01*
X91695Y-58345D01*
X91610Y-58345D01*
X91554Y-58373D01*
X91526Y-58401D01*
X91498Y-58457D01*
X91498Y-58626D01*
X91526Y-58682D01*
X91554Y-58710D01*
X91610Y-58739D01*
X91695Y-58739D01*
X91329Y-58345D02*
X91104Y-58345D01*
X91245Y-58148D02*
X91245Y-58654D01*
X91217Y-58710D01*
X91160Y-58739D01*
X91104Y-58739D01*
X90992Y-58345D02*
X90767Y-58345D01*
X90907Y-58148D02*
X90907Y-58654D01*
X90879Y-58710D01*
X90823Y-58739D01*
X90767Y-58739D01*
X90485Y-58739D02*
X90542Y-58710D01*
X90570Y-58682D01*
X90598Y-58626D01*
X90598Y-58457D01*
X90570Y-58401D01*
X90542Y-58373D01*
X90485Y-58345D01*
X90401Y-58345D01*
X90345Y-58373D01*
X90317Y-58401D01*
X90289Y-58457D01*
X90289Y-58626D01*
X90317Y-58682D01*
X90345Y-58710D01*
X90401Y-58739D01*
X90485Y-58739D01*
X90036Y-58739D02*
X90036Y-58345D01*
X90036Y-58401D02*
X90007Y-58373D01*
X89951Y-58345D01*
X89867Y-58345D01*
X89811Y-58373D01*
X89782Y-58429D01*
X89782Y-58739D01*
X89782Y-58429D02*
X89754Y-58373D01*
X89698Y-58345D01*
X89614Y-58345D01*
X89557Y-58373D01*
X89529Y-58429D01*
X89529Y-58739D01*
%LPC*%
G54D12*
X79100Y-58000D03*
G54D13*
X79100Y-57000D03*
X80100Y-58000D03*
X80100Y-57000D03*
X81100Y-58000D03*
X81100Y-57000D03*
G54D14*
X59100Y-46050D03*
G54D15*
X58100Y-46050D03*
X57100Y-46050D03*
X56100Y-46050D03*
X55100Y-46050D03*
X54100Y-46050D03*
X53100Y-46050D03*
X52100Y-46050D03*
X51100Y-46050D03*
X50100Y-46050D03*
X49100Y-46050D03*
X48100Y-46050D03*
X48072Y-47042D03*
X48072Y-48026D03*
X48072Y-50073D03*
X48072Y-51057D03*
X48100Y-52050D03*
X49100Y-52050D03*
X50100Y-52050D03*
X51100Y-52050D03*
X52100Y-52050D03*
X53100Y-52050D03*
X54100Y-52050D03*
X55100Y-52050D03*
X56100Y-52050D03*
X57100Y-52050D03*
X58100Y-52050D03*
X59100Y-52050D03*
G54D16*
X55631Y-51057D03*
X54647Y-51057D03*
X19450Y-52100D03*
X19450Y-51100D03*
G54D17*
X19450Y-50100D03*
G54D18*
X17481Y-51100D03*
G54D19*
X49450Y-35000D03*
X49450Y-32000D03*
X16750Y-35000D03*
X16750Y-32000D03*
X22950Y-35000D03*
X22950Y-32000D03*
X29350Y-35000D03*
X29350Y-32000D03*
X36250Y-35000D03*
X36250Y-32000D03*
X42850Y-35000D03*
X42850Y-32000D03*
X88550Y-35000D03*
X88550Y-32000D03*
X81950Y-35000D03*
X81950Y-32000D03*
X55650Y-35000D03*
X55650Y-32000D03*
X61650Y-35000D03*
X61650Y-32000D03*
X68450Y-35000D03*
X68450Y-32000D03*
X75350Y-35000D03*
X75350Y-32000D03*
G54D20*
X30950Y-35200D03*
X31950Y-35200D03*
X76950Y-35200D03*
X77950Y-35200D03*
X37750Y-35200D03*
X38750Y-35200D03*
X24550Y-35200D03*
X25550Y-35200D03*
X90150Y-35200D03*
X91150Y-35200D03*
X70050Y-35200D03*
X71050Y-35200D03*
X18400Y-35200D03*
X19400Y-35200D03*
X44450Y-35200D03*
X45450Y-35200D03*
X83450Y-35200D03*
X84450Y-35200D03*
X50950Y-35200D03*
X51950Y-35200D03*
X63250Y-35200D03*
X64250Y-35200D03*
X57250Y-35200D03*
X58250Y-35200D03*
G54D21*
X46450Y-27800D03*
G54D19*
X43450Y-27800D03*
G54D21*
X85450Y-27800D03*
G54D19*
X82450Y-27800D03*
G54D21*
X65250Y-27800D03*
G54D19*
X62250Y-27800D03*
G54D21*
X19650Y-27800D03*
G54D19*
X16650Y-27800D03*
G54D21*
X26550Y-27800D03*
G54D19*
X23550Y-27800D03*
G54D21*
X92050Y-27800D03*
G54D19*
X89050Y-27800D03*
G54D21*
X78950Y-27800D03*
G54D19*
X75950Y-27800D03*
G54D21*
X59150Y-27800D03*
G54D19*
X56150Y-27800D03*
G54D21*
X32850Y-27800D03*
G54D19*
X29850Y-27800D03*
G54D21*
X72050Y-27800D03*
G54D19*
X69050Y-27800D03*
G54D21*
X39750Y-27800D03*
G54D19*
X36750Y-27800D03*
G54D21*
X53050Y-27800D03*
G54D19*
X50050Y-27800D03*
G54D16*
X37300Y-30100D03*
X38300Y-30100D03*
G54D17*
X39300Y-30100D03*
G54D16*
X89600Y-30100D03*
X90600Y-30100D03*
G54D17*
X91600Y-30100D03*
G54D16*
X17100Y-30100D03*
X18100Y-30100D03*
G54D17*
X19100Y-30100D03*
G54D16*
X24050Y-30100D03*
X25050Y-30100D03*
G54D17*
X26050Y-30100D03*
G54D16*
X30400Y-30100D03*
X31400Y-30100D03*
G54D17*
X32400Y-30100D03*
G54D16*
X43950Y-30100D03*
X44950Y-30100D03*
G54D17*
X45950Y-30100D03*
G54D16*
X50500Y-30100D03*
X51500Y-30100D03*
G54D17*
X52500Y-30100D03*
G54D16*
X56700Y-30100D03*
X57700Y-30100D03*
G54D17*
X58700Y-30100D03*
G54D16*
X62750Y-30100D03*
X63750Y-30100D03*
G54D17*
X64750Y-30100D03*
G54D16*
X69550Y-30100D03*
X70550Y-30100D03*
G54D17*
X71550Y-30100D03*
G54D16*
X76450Y-30100D03*
X77450Y-30100D03*
G54D17*
X78450Y-30100D03*
G54D16*
X83000Y-30100D03*
X84000Y-30100D03*
G54D17*
X85000Y-30100D03*
G54D22*
X92050Y-53000D03*
G54D23*
X92050Y-51000D03*
X92050Y-49000D03*
G54D24*
X24515Y-53787D03*
X27468Y-53787D03*
X30421Y-53787D03*
X25500Y-52803D03*
X29437Y-52803D03*
X25598Y-57527D03*
X29535Y-57527D03*
G54D19*
X27350Y-48300D03*
X27350Y-51300D03*
X24450Y-48300D03*
X24450Y-51300D03*
X60750Y-56550D03*
X57750Y-56550D03*
X57750Y-57500D03*
X60750Y-57500D03*
X57750Y-58550D03*
X60750Y-58550D03*
G54D21*
X52750Y-53500D03*
G54D19*
X52750Y-54500D03*
X52750Y-55500D03*
X52750Y-56500D03*
X52750Y-57500D03*
X52750Y-58500D03*
G54D21*
X72452Y-52250D03*
G54D19*
X72452Y-51250D03*
X72452Y-50250D03*
X72452Y-49250D03*
X72452Y-48250D03*
X72452Y-47250D03*
X72452Y-46250D03*
X72452Y-45250D03*
X66500Y-45250D03*
X66500Y-46250D03*
X66500Y-47250D03*
X66500Y-48250D03*
X66500Y-49250D03*
X66500Y-50250D03*
X66500Y-51250D03*
X66500Y-52250D03*
G54D21*
X21250Y-52850D03*
G54D19*
X22250Y-52850D03*
G54D21*
X21600Y-47900D03*
G54D19*
X22600Y-47900D03*
G54D12*
X23100Y-45200D03*
G54D13*
X23100Y-46200D03*
G54D12*
X21600Y-45200D03*
G54D13*
X21600Y-46200D03*
G54D25*
X88515Y-37926D03*
X90877Y-37926D03*
X88515Y-39698D03*
X90877Y-39698D03*
X43015Y-37676D03*
X45377Y-37676D03*
X43015Y-39448D03*
X45377Y-39448D03*
X82015Y-37926D03*
X84377Y-37926D03*
X82015Y-39698D03*
X84377Y-39698D03*
X49765Y-37676D03*
X52127Y-37676D03*
X49765Y-39448D03*
X52127Y-39448D03*
X36465Y-37676D03*
X38827Y-37676D03*
X36465Y-39448D03*
X38827Y-39448D03*
X75515Y-37926D03*
X77877Y-37926D03*
X75515Y-39698D03*
X77877Y-39698D03*
X55765Y-37676D03*
X58127Y-37676D03*
X55765Y-39448D03*
X58127Y-39448D03*
X29465Y-37826D03*
X31827Y-37826D03*
X29465Y-39598D03*
X31827Y-39598D03*
X23115Y-37826D03*
X25477Y-37826D03*
X23115Y-39598D03*
X25477Y-39598D03*
X68765Y-37926D03*
X71127Y-37926D03*
X68765Y-39698D03*
X71127Y-39698D03*
X62015Y-37926D03*
X64377Y-37926D03*
X62015Y-39698D03*
X64377Y-39698D03*
X17615Y-37826D03*
X19977Y-37826D03*
X17615Y-39598D03*
X19977Y-39598D03*
G54D19*
X85300Y-52800D03*
X85300Y-49800D03*
X84350Y-49800D03*
X84350Y-52800D03*
X75450Y-44850D03*
X78450Y-44850D03*
X75150Y-48000D03*
X75150Y-51000D03*
X81500Y-45850D03*
X78500Y-45850D03*
X89350Y-45950D03*
X86350Y-45950D03*
X86350Y-46900D03*
X89350Y-46900D03*
G54D26*
X81500Y-51500D03*
G54D27*
X81500Y-50500D03*
X81500Y-49500D03*
X81500Y-48500D03*
X78500Y-48500D03*
X78500Y-49500D03*
X78500Y-50500D03*
X78500Y-51500D03*
G54D19*
X77700Y-52800D03*
X77700Y-53800D03*
X55000Y-54600D03*
X55000Y-55600D03*
X56150Y-54600D03*
X56150Y-55600D03*
X66450Y-54050D03*
X67450Y-54050D03*
G54D21*
X87350Y-44250D03*
G54D19*
X88350Y-44250D03*
G54D21*
X62700Y-54350D03*
G54D19*
X62700Y-55350D03*
X63700Y-55350D03*
X85900Y-54000D03*
X82900Y-54000D03*
X89050Y-58050D03*
X86050Y-58050D03*
G54D12*
X82900Y-58000D03*
G54D13*
X82900Y-57000D03*
X83900Y-58000D03*
X83900Y-57000D03*
X84900Y-58000D03*
X84900Y-57000D03*
G54D21*
X63250Y-57200D03*
G54D19*
X63250Y-58200D03*
G54D21*
X65500Y-56550D03*
G54D19*
X65500Y-57550D03*
G54D21*
X73450Y-44900D03*
G54D19*
X74450Y-44900D03*
G54D21*
X86550Y-56000D03*
G54D19*
X86550Y-55000D03*
G54D12*
X31500Y-24750D03*
G54D13*
X30500Y-24750D03*
G54D12*
X57750Y-24750D03*
G54D13*
X56750Y-24750D03*
G54D12*
X70750Y-24750D03*
G54D13*
X69750Y-24750D03*
G54D12*
X25250Y-24750D03*
G54D13*
X24250Y-24750D03*
G54D12*
X51750Y-24750D03*
G54D13*
X50750Y-24750D03*
G54D12*
X84250Y-24750D03*
G54D13*
X83250Y-24750D03*
G54D12*
X77650Y-24750D03*
G54D13*
X76650Y-24750D03*
G54D12*
X90750Y-24750D03*
G54D13*
X89750Y-24750D03*
G54D12*
X18250Y-24750D03*
G54D13*
X17250Y-24750D03*
G54D12*
X38250Y-24750D03*
G54D13*
X37250Y-24750D03*
G54D12*
X63750Y-24750D03*
G54D13*
X62750Y-24750D03*
G54D12*
X45000Y-24750D03*
G54D13*
X44000Y-24750D03*
G54D28*
X53550Y-32750D03*
X17950Y-56950D03*
X91000Y-56950D03*
G54D29*
X88092Y-51300D03*
G54D30*
X87107Y-51300D03*
G54D29*
X74900Y-52757D03*
G54D30*
X74900Y-53742D03*
M02*
