M48
INCH,TZ
T1C0.025
T2C0.031
T3C0.032
T4C0.040
T5C0.047
T6C0.060
T7C0.100
T8C0.138
%
G90
G05
T1
X21350Y-27900
X21350Y-40000
X21550Y-38700
X21550Y-43500
X29000Y-51100
X29900Y-51100
X43800Y-43500
X44700Y-40700
X45600Y-46500
X45600Y-48300
X47800Y-45400
X54100Y-55850
X54200Y-50400
X56700Y-49400
X57500Y-43700
X59200Y-54600
X60350Y-54550
X61500Y-49600
X62500Y-50600
X62800Y-41900
X74400Y-46800
X79350Y-52800
X80300Y-48950
X80300Y-50050
X80500Y-52800
X80600Y-55200
X82350Y-54650
X82850Y-51950
X83300Y-54700
X90200Y-49250
X91700Y-45850
T2
X74900Y-52758
X74900Y-53742
X87108Y-51300
X88092Y-51300
T3
X16650Y-27800
X16750Y-32000
X16750Y-35000
X18400Y-35200
X19400Y-35200
X19650Y-27800
X21250Y-52850
X21600Y-47900
X22250Y-52850
X22600Y-47900
X22950Y-32000
X22950Y-35000
X23550Y-27800
X24450Y-48300
X24450Y-51300
X24550Y-35200
X25550Y-35200
X26550Y-27800
X27350Y-48300
X27350Y-51300
X29350Y-32000
X29350Y-35000
X29850Y-27800
X30950Y-35200
X31950Y-35200
X32850Y-27800
X36250Y-32000
X36250Y-35000
X36750Y-27800
X37750Y-35200
X38750Y-35200
X39750Y-27800
X41700Y-42900
X41700Y-43900
X41700Y-44900
X41700Y-45900
X41700Y-46900
X41700Y-47900
X41700Y-48900
X41700Y-49900
X42850Y-32000
X42850Y-35000
X43450Y-27800
X44450Y-35200
X44700Y-42900
X44700Y-43900
X44700Y-44900
X44700Y-45900
X44700Y-46900
X44700Y-47900
X44700Y-48900
X44700Y-49900
X45450Y-35200
X46450Y-27800
X49450Y-32000
X49450Y-35000
X50050Y-27800
X50950Y-35200
X51300Y-41700
X51300Y-44700
X51950Y-35200
X52300Y-41700
X52300Y-44700
X52750Y-53500
X52750Y-54500
X52750Y-55500
X52750Y-56500
X52750Y-57500
X52750Y-58500
X53050Y-27800
X53300Y-41700
X53300Y-44700
X54300Y-41700
X54300Y-44700
X55000Y-54600
X55000Y-55600
X55300Y-41700
X55300Y-44700
X55650Y-32000
X55650Y-35000
X56150Y-27800
X56150Y-54600
X56150Y-55600
X56300Y-41700
X56300Y-44700
X57250Y-35200
X57300Y-41700
X57300Y-44700
X57750Y-56550
X57750Y-57500
X57750Y-58550
X58250Y-35200
X58300Y-41700
X58300Y-44700
X59150Y-27800
X60750Y-56550
X60750Y-57500
X60750Y-58550
X61650Y-32000
X61650Y-35000
X62250Y-27800
X62700Y-54350
X62700Y-55350
X63250Y-35200
X63250Y-57200
X63250Y-58200
X63700Y-55350
X64250Y-35200
X65250Y-27800
X65500Y-56550
X65500Y-57550
X66450Y-54050
X66500Y-45250
X66500Y-46250
X66500Y-47250
X66500Y-48250
X66500Y-49250
X66500Y-50250
X66500Y-51250
X66500Y-52250
X67450Y-54050
X68450Y-32000
X68450Y-35000
X69050Y-27800
X70050Y-35200
X71050Y-35200
X72050Y-27800
X72453Y-45250
X72453Y-46250
X72453Y-47250
X72453Y-48250
X72453Y-49250
X72453Y-50250
X72453Y-51250
X72453Y-52250
X73450Y-44900
X74450Y-44900
X75150Y-48000
X75150Y-51000
X75350Y-32000
X75350Y-35000
X75450Y-44850
X75950Y-27800
X76950Y-35200
X77700Y-52800
X77700Y-53800
X77950Y-35200
X78450Y-44850
X78500Y-45850
X78500Y-48500
X78500Y-49500
X78500Y-50500
X78500Y-51500
X78950Y-27800
X81500Y-45850
X81500Y-48500
X81500Y-49500
X81500Y-50500
X81500Y-51500
X81950Y-32000
X81950Y-35000
X82450Y-27800
X82900Y-54000
X83450Y-35200
X84350Y-49800
X84350Y-52800
X84450Y-35200
X85300Y-49800
X85300Y-52800
X85450Y-27800
X85900Y-54000
X86050Y-58050
X86350Y-45950
X86350Y-46900
X86550Y-55000
X86550Y-56000
X87350Y-44250
X88350Y-44250
X88550Y-32000
X88550Y-35000
X89050Y-27800
X89050Y-58050
X89350Y-45950
X89350Y-46900
X90150Y-35200
X91150Y-35200
X92050Y-27800
T4
X17100Y-30100
X17250Y-24750
X18100Y-30100
X18250Y-24750
X19100Y-30100
X19450Y-50100
X19450Y-51100
X19450Y-52100
X21600Y-45200
X21600Y-46200
X23100Y-45200
X23100Y-46200
X24050Y-30100
X24250Y-24750
X25050Y-30100
X25250Y-24750
X26050Y-30100
X30400Y-30100
X30500Y-24750
X31400Y-30100
X31500Y-24750
X32400Y-30100
X37250Y-24750
X37300Y-30100
X38250Y-24750
X38300Y-30100
X39300Y-30100
X43950Y-30100
X44000Y-24750
X44950Y-30100
X45000Y-24750
X45950Y-30100
X48072Y-47042
X48072Y-48026
X48072Y-50074
X48072Y-51058
X48100Y-46050
X48100Y-52050
X49100Y-46050
X49100Y-52050
X50100Y-46050
X50100Y-52050
X50500Y-30100
X50750Y-24750
X51100Y-46050
X51100Y-52050
X51500Y-30100
X51750Y-24750
X52100Y-46050
X52100Y-52050
X52500Y-30100
X53100Y-46050
X53100Y-52050
X54100Y-46050
X54100Y-52050
X54647Y-51058
X55100Y-46050
X55100Y-52050
X55631Y-51058
X56100Y-46050
X56100Y-52050
X56700Y-30100
X56750Y-24750
X57100Y-46050
X57100Y-52050
X57700Y-30100
X57750Y-24750
X58100Y-46050
X58100Y-52050
X58700Y-30100
X59100Y-46050
X59100Y-52050
X62750Y-24750
X62750Y-30100
X63750Y-24750
X63750Y-30100
X64750Y-30100
X69550Y-30100
X69750Y-24750
X70550Y-30100
X70750Y-24750
X71550Y-30100
X76450Y-30100
X76650Y-24750
X77450Y-30100
X77650Y-24750
X78450Y-30100
X79100Y-57000
X79100Y-58000
X80100Y-57000
X80100Y-58000
X81100Y-57000
X81100Y-58000
X82900Y-57000
X82900Y-58000
X83000Y-30100
X83250Y-24750
X83900Y-57000
X83900Y-58000
X84000Y-30100
X84250Y-24750
X84900Y-57000
X84900Y-58000
X85000Y-30100
X89600Y-30100
X89750Y-24750
X90600Y-30100
X90750Y-24750
X91600Y-30100
T5
X17616Y-37826
X17616Y-39598
X19978Y-37826
X19978Y-39598
X23116Y-37826
X23116Y-39598
X25478Y-37826
X25478Y-39598
X29466Y-37826
X29466Y-39598
X31828Y-37826
X31828Y-39598
X36466Y-37676
X36466Y-39448
X38828Y-37676
X38828Y-39448
X43016Y-37676
X43016Y-39448
X45378Y-37676
X45378Y-39448
X49766Y-37676
X49766Y-39448
X52128Y-37676
X52128Y-39448
X55766Y-37676
X55766Y-39448
X58128Y-37676
X58128Y-39448
X62016Y-37926
X62016Y-39698
X64378Y-37926
X64378Y-39698
X68766Y-37926
X68766Y-39698
X71128Y-37926
X71128Y-39698
X75516Y-37926
X75516Y-39698
X77878Y-37926
X77878Y-39698
X82016Y-37926
X82016Y-39698
X84378Y-37926
X84378Y-39698
X88516Y-37926
X88516Y-39698
X90878Y-37926
X90878Y-39698
T6
X24516Y-53787
X25500Y-52803
X25598Y-57528
X27469Y-53787
X29437Y-52803
X29535Y-57528
X30421Y-53787
X92050Y-49000
X92050Y-51000
X92050Y-53000
T7
X17481Y-51100
T8
X17950Y-56950
X53550Y-32750
X91000Y-56950
T0
M30
