G04 (created by PCBNEW (2013-07-07 BZR 4022)-stable) date 13/07/2014 09:51:17*
%MOIN*%
G04 Gerber Fmt 3.4, Leading zero omitted, Abs format*
%FSLAX34Y34*%
G01*
G70*
G90*
G04 APERTURE LIST*
%ADD10C,0.00590551*%
%ADD11R,0.065X0.065*%
%ADD12C,0.065*%
%ADD13C,0.07*%
%ADD14R,0.06X0.06*%
%ADD15C,0.06*%
%ADD16R,0.07X0.07*%
%ADD17R,0.12X0.12*%
%ADD18C,0.055*%
%ADD19C,0.066*%
%ADD20R,0.055X0.055*%
%ADD21R,0.1X0.1*%
%ADD22C,0.1*%
%ADD23C,0.095*%
%ADD24C,0.0787402*%
%ADD25R,0.09X0.062*%
%ADD26O,0.09X0.062*%
%ADD27C,0.137795*%
%ADD28R,0.0393701X0.0393701*%
%ADD29C,0.0472441*%
%ADD30R,0.038X0.05*%
%ADD31R,0.05X0.038*%
%ADD32C,0.035*%
%ADD33C,0.015*%
%ADD34C,0.05*%
%ADD35C,0.025*%
%ADD36C,0.04*%
%ADD37C,0.03*%
%ADD38C,0.027*%
%ADD39C,0.01*%
%ADD40C,0.012*%
%ADD41C,0.02*%
G04 APERTURE END LIST*
G54D10*
G54D11*
X59100Y-46050D03*
G54D12*
X58100Y-46050D03*
X57100Y-46050D03*
X56100Y-46050D03*
X55100Y-46050D03*
X54100Y-46050D03*
X53100Y-46050D03*
X52100Y-46050D03*
X51100Y-46050D03*
X50100Y-46050D03*
X49100Y-46050D03*
X48100Y-46050D03*
X48072Y-47042D03*
X48072Y-48026D03*
X48072Y-50073D03*
X48072Y-51057D03*
X48100Y-52050D03*
X49100Y-52050D03*
X50100Y-52050D03*
X51100Y-52050D03*
X52100Y-52050D03*
X53100Y-52050D03*
X54100Y-52050D03*
X55100Y-52050D03*
X56100Y-52050D03*
X57100Y-52050D03*
X58100Y-52050D03*
X59100Y-52050D03*
G54D13*
X55631Y-51057D03*
X54647Y-51057D03*
G54D14*
X79100Y-58000D03*
G54D15*
X79100Y-57000D03*
X80100Y-58000D03*
X80100Y-57000D03*
X81100Y-58000D03*
X81100Y-57000D03*
G54D13*
X19450Y-52100D03*
X19450Y-51100D03*
G54D16*
X19450Y-50100D03*
G54D17*
X17481Y-51100D03*
G54D18*
X49450Y-35000D03*
X49450Y-32000D03*
X16750Y-35000D03*
X16750Y-32000D03*
X22950Y-35000D03*
X22950Y-32000D03*
X29350Y-35000D03*
X29350Y-32000D03*
X36250Y-35000D03*
X36250Y-32000D03*
X42850Y-35000D03*
X42850Y-32000D03*
X88550Y-35000D03*
X88550Y-32000D03*
X81950Y-35000D03*
X81950Y-32000D03*
X55650Y-35000D03*
X55650Y-32000D03*
X61650Y-35000D03*
X61650Y-32000D03*
X68450Y-35000D03*
X68450Y-32000D03*
X75350Y-35000D03*
X75350Y-32000D03*
G54D19*
X30950Y-35200D03*
X31950Y-35200D03*
X76950Y-35200D03*
X77950Y-35200D03*
X37750Y-35200D03*
X38750Y-35200D03*
X24550Y-35200D03*
X25550Y-35200D03*
X90150Y-35200D03*
X91150Y-35200D03*
X70050Y-35200D03*
X71050Y-35200D03*
X18400Y-35200D03*
X19400Y-35200D03*
X44450Y-35200D03*
X45450Y-35200D03*
X83450Y-35200D03*
X84450Y-35200D03*
X50950Y-35200D03*
X51950Y-35200D03*
X63250Y-35200D03*
X64250Y-35200D03*
X57250Y-35200D03*
X58250Y-35200D03*
G54D20*
X46450Y-27800D03*
G54D18*
X43450Y-27800D03*
G54D20*
X85450Y-27800D03*
G54D18*
X82450Y-27800D03*
G54D20*
X65250Y-27800D03*
G54D18*
X62250Y-27800D03*
G54D20*
X19650Y-27800D03*
G54D18*
X16650Y-27800D03*
G54D20*
X26550Y-27800D03*
G54D18*
X23550Y-27800D03*
G54D20*
X92050Y-27800D03*
G54D18*
X89050Y-27800D03*
G54D20*
X78950Y-27800D03*
G54D18*
X75950Y-27800D03*
G54D20*
X59150Y-27800D03*
G54D18*
X56150Y-27800D03*
G54D20*
X32850Y-27800D03*
G54D18*
X29850Y-27800D03*
G54D20*
X72050Y-27800D03*
G54D18*
X69050Y-27800D03*
G54D20*
X39750Y-27800D03*
G54D18*
X36750Y-27800D03*
G54D20*
X53050Y-27800D03*
G54D18*
X50050Y-27800D03*
G54D13*
X37300Y-30100D03*
X38300Y-30100D03*
G54D16*
X39300Y-30100D03*
G54D13*
X89600Y-30100D03*
X90600Y-30100D03*
G54D16*
X91600Y-30100D03*
G54D13*
X17100Y-30100D03*
X18100Y-30100D03*
G54D16*
X19100Y-30100D03*
G54D13*
X24050Y-30100D03*
X25050Y-30100D03*
G54D16*
X26050Y-30100D03*
G54D13*
X30400Y-30100D03*
X31400Y-30100D03*
G54D16*
X32400Y-30100D03*
G54D13*
X43950Y-30100D03*
X44950Y-30100D03*
G54D16*
X45950Y-30100D03*
G54D13*
X50500Y-30100D03*
X51500Y-30100D03*
G54D16*
X52500Y-30100D03*
G54D13*
X56700Y-30100D03*
X57700Y-30100D03*
G54D16*
X58700Y-30100D03*
G54D13*
X62750Y-30100D03*
X63750Y-30100D03*
G54D16*
X64750Y-30100D03*
G54D13*
X69550Y-30100D03*
X70550Y-30100D03*
G54D16*
X71550Y-30100D03*
G54D13*
X76450Y-30100D03*
X77450Y-30100D03*
G54D16*
X78450Y-30100D03*
G54D13*
X83000Y-30100D03*
X84000Y-30100D03*
G54D16*
X85000Y-30100D03*
G54D21*
X92050Y-53000D03*
G54D22*
X92050Y-51000D03*
X92050Y-49000D03*
G54D23*
X24515Y-53787D03*
X27468Y-53787D03*
X30421Y-53787D03*
X25500Y-52803D03*
X29437Y-52803D03*
X25598Y-57527D03*
X29535Y-57527D03*
G54D18*
X27350Y-48300D03*
X27350Y-51300D03*
X24450Y-48300D03*
X24450Y-51300D03*
X60750Y-56550D03*
X57750Y-56550D03*
X57750Y-57500D03*
X60750Y-57500D03*
X57750Y-58550D03*
X60750Y-58550D03*
G54D20*
X52750Y-53500D03*
G54D18*
X52750Y-54500D03*
X52750Y-55500D03*
X52750Y-56500D03*
X52750Y-57500D03*
X52750Y-58500D03*
G54D20*
X72452Y-52250D03*
G54D18*
X72452Y-51250D03*
X72452Y-50250D03*
X72452Y-49250D03*
X72452Y-48250D03*
X72452Y-47250D03*
X72452Y-46250D03*
X72452Y-45250D03*
X66500Y-45250D03*
X66500Y-46250D03*
X66500Y-47250D03*
X66500Y-48250D03*
X66500Y-49250D03*
X66500Y-50250D03*
X66500Y-51250D03*
X66500Y-52250D03*
G54D20*
X21250Y-52850D03*
G54D18*
X22250Y-52850D03*
G54D20*
X21600Y-47900D03*
G54D18*
X22600Y-47900D03*
G54D14*
X23100Y-45200D03*
G54D15*
X23100Y-46200D03*
G54D14*
X21600Y-45200D03*
G54D15*
X21600Y-46200D03*
G54D24*
X88515Y-37926D03*
X90877Y-37926D03*
X88515Y-39698D03*
X90877Y-39698D03*
X43015Y-37676D03*
X45377Y-37676D03*
X43015Y-39448D03*
X45377Y-39448D03*
X82015Y-37926D03*
X84377Y-37926D03*
X82015Y-39698D03*
X84377Y-39698D03*
X49765Y-37676D03*
X52127Y-37676D03*
X49765Y-39448D03*
X52127Y-39448D03*
X36465Y-37676D03*
X38827Y-37676D03*
X36465Y-39448D03*
X38827Y-39448D03*
X75515Y-37926D03*
X77877Y-37926D03*
X75515Y-39698D03*
X77877Y-39698D03*
X55765Y-37676D03*
X58127Y-37676D03*
X55765Y-39448D03*
X58127Y-39448D03*
X29465Y-37826D03*
X31827Y-37826D03*
X29465Y-39598D03*
X31827Y-39598D03*
X23115Y-37826D03*
X25477Y-37826D03*
X23115Y-39598D03*
X25477Y-39598D03*
X68765Y-37926D03*
X71127Y-37926D03*
X68765Y-39698D03*
X71127Y-39698D03*
X62015Y-37926D03*
X64377Y-37926D03*
X62015Y-39698D03*
X64377Y-39698D03*
X17615Y-37826D03*
X19977Y-37826D03*
X17615Y-39598D03*
X19977Y-39598D03*
G54D18*
X85300Y-52800D03*
X85300Y-49800D03*
X84350Y-49800D03*
X84350Y-52800D03*
X75450Y-44850D03*
X78450Y-44850D03*
X75150Y-48000D03*
X75150Y-51000D03*
X81500Y-45850D03*
X78500Y-45850D03*
X89350Y-45950D03*
X86350Y-45950D03*
X86350Y-46900D03*
X89350Y-46900D03*
G54D25*
X81500Y-51500D03*
G54D26*
X81500Y-50500D03*
X81500Y-49500D03*
X81500Y-48500D03*
X78500Y-48500D03*
X78500Y-49500D03*
X78500Y-50500D03*
X78500Y-51500D03*
G54D18*
X77700Y-52800D03*
X77700Y-53800D03*
X55000Y-54600D03*
X55000Y-55600D03*
X56150Y-54600D03*
X56150Y-55600D03*
X66450Y-54050D03*
X67450Y-54050D03*
G54D20*
X87350Y-44250D03*
G54D18*
X88350Y-44250D03*
G54D20*
X62700Y-54350D03*
G54D18*
X62700Y-55350D03*
X63700Y-55350D03*
X85900Y-54000D03*
X82900Y-54000D03*
X89050Y-58050D03*
X86050Y-58050D03*
G54D14*
X82900Y-58000D03*
G54D15*
X82900Y-57000D03*
X83900Y-58000D03*
X83900Y-57000D03*
X84900Y-58000D03*
X84900Y-57000D03*
G54D20*
X63250Y-57200D03*
G54D18*
X63250Y-58200D03*
G54D20*
X65500Y-56550D03*
G54D18*
X65500Y-57550D03*
G54D20*
X73450Y-44900D03*
G54D18*
X74450Y-44900D03*
G54D20*
X86550Y-56000D03*
G54D18*
X86550Y-55000D03*
G54D14*
X31500Y-24750D03*
G54D15*
X30500Y-24750D03*
G54D14*
X57750Y-24750D03*
G54D15*
X56750Y-24750D03*
G54D14*
X70750Y-24750D03*
G54D15*
X69750Y-24750D03*
G54D14*
X25250Y-24750D03*
G54D15*
X24250Y-24750D03*
G54D14*
X51750Y-24750D03*
G54D15*
X50750Y-24750D03*
G54D14*
X84250Y-24750D03*
G54D15*
X83250Y-24750D03*
G54D14*
X77650Y-24750D03*
G54D15*
X76650Y-24750D03*
G54D14*
X90750Y-24750D03*
G54D15*
X89750Y-24750D03*
G54D14*
X18250Y-24750D03*
G54D15*
X17250Y-24750D03*
G54D14*
X38250Y-24750D03*
G54D15*
X37250Y-24750D03*
G54D14*
X63750Y-24750D03*
G54D15*
X62750Y-24750D03*
G54D14*
X45000Y-24750D03*
G54D15*
X44000Y-24750D03*
G54D27*
X53550Y-32750D03*
X17950Y-56950D03*
X91000Y-56950D03*
G54D28*
X88092Y-51300D03*
G54D29*
X87107Y-51300D03*
G54D28*
X74900Y-52757D03*
G54D29*
X74900Y-53742D03*
G54D30*
X81300Y-55500D03*
X81800Y-55500D03*
X82300Y-55500D03*
G54D31*
X74200Y-47500D03*
X74200Y-48000D03*
X74200Y-48500D03*
G54D20*
X58300Y-41700D03*
G54D18*
X57300Y-41700D03*
X56300Y-41700D03*
X55300Y-41700D03*
X54300Y-41700D03*
X53300Y-41700D03*
X52300Y-41700D03*
X51300Y-41700D03*
X51300Y-44700D03*
X52300Y-44700D03*
X53300Y-44700D03*
X54300Y-44700D03*
X55300Y-44700D03*
X56300Y-44700D03*
X57300Y-44700D03*
X58300Y-44700D03*
G54D20*
X41700Y-42900D03*
G54D18*
X41700Y-43900D03*
X41700Y-44900D03*
X41700Y-45900D03*
X41700Y-46900D03*
X41700Y-47900D03*
X41700Y-48900D03*
X41700Y-49900D03*
X44700Y-49900D03*
X44700Y-48900D03*
X44700Y-47900D03*
X44700Y-46900D03*
X44700Y-45900D03*
X44700Y-44900D03*
X44700Y-43900D03*
X44700Y-42900D03*
G54D32*
X21350Y-27900D03*
X21550Y-38700D03*
X21350Y-40000D03*
X79350Y-52800D03*
X80500Y-52800D03*
X82350Y-54650D03*
X83300Y-54700D03*
X90200Y-49250D03*
X91700Y-45850D03*
X62800Y-41900D03*
X56700Y-49400D03*
X60350Y-54550D03*
X59200Y-54600D03*
X21550Y-43500D03*
X57500Y-43700D03*
X43800Y-43500D03*
X44700Y-40700D03*
X74400Y-46800D03*
X80600Y-55200D03*
X29000Y-51100D03*
X29900Y-51100D03*
X54200Y-50400D03*
X62500Y-50600D03*
X61500Y-49600D03*
X54100Y-55850D03*
X80300Y-48950D03*
X80300Y-50050D03*
X47800Y-45400D03*
X45600Y-48300D03*
X45600Y-46500D03*
X82850Y-51950D03*
G54D33*
X77700Y-52800D02*
X77700Y-52300D01*
X77700Y-52300D02*
X78500Y-51500D01*
X76650Y-52750D02*
X77650Y-52750D01*
X77650Y-52750D02*
X77700Y-52800D01*
G54D34*
X92050Y-49000D02*
X92050Y-31900D01*
X92050Y-31900D02*
X92400Y-31550D01*
X92400Y-28150D02*
X92050Y-27800D01*
X92400Y-31550D02*
X92400Y-28150D01*
X19450Y-52100D02*
X18800Y-52100D01*
X21350Y-38500D02*
X21350Y-27900D01*
X21550Y-38700D02*
X21350Y-38500D01*
X18550Y-42800D02*
X21350Y-40000D01*
X18550Y-51850D02*
X18550Y-42800D01*
X18800Y-52100D02*
X18550Y-51850D01*
X25500Y-52803D02*
X25500Y-53950D01*
X19450Y-53600D02*
X19450Y-52100D01*
X21300Y-55450D02*
X19450Y-53600D01*
X25050Y-55450D02*
X21300Y-55450D01*
X25500Y-55000D02*
X25050Y-55450D01*
X25500Y-53950D02*
X25500Y-55000D01*
G54D33*
X78500Y-51500D02*
X78500Y-51950D01*
X78500Y-51950D02*
X79350Y-52800D01*
X80500Y-52800D02*
X82350Y-54650D01*
X83300Y-54700D02*
X84100Y-55500D01*
X84100Y-55500D02*
X86800Y-55500D01*
X86800Y-55500D02*
X88900Y-53400D01*
X88900Y-53400D02*
X88900Y-50550D01*
X88900Y-50550D02*
X90200Y-49250D01*
X91750Y-45800D02*
X92050Y-45800D01*
X91700Y-45850D02*
X91750Y-45800D01*
X74900Y-52750D02*
X76650Y-52750D01*
G54D35*
X19450Y-52100D02*
X20500Y-52100D01*
X20500Y-52100D02*
X21250Y-52850D01*
G54D36*
X92050Y-49000D02*
X92050Y-45800D01*
X92050Y-45800D02*
X92050Y-31900D01*
X92450Y-28200D02*
X92050Y-27800D01*
X92050Y-31900D02*
X92450Y-31500D01*
X92450Y-31500D02*
X92450Y-28200D01*
G54D33*
X66450Y-54050D02*
X66450Y-52300D01*
X66450Y-52300D02*
X66500Y-52250D01*
X65500Y-56550D02*
X65500Y-55000D01*
X65500Y-55000D02*
X66450Y-54050D01*
X63700Y-55350D02*
X64300Y-55350D01*
X64300Y-55350D02*
X65500Y-56550D01*
X53900Y-43700D02*
X52300Y-43700D01*
X52300Y-43700D02*
X52300Y-43800D01*
X44700Y-48900D02*
X44400Y-48900D01*
X44400Y-48900D02*
X43800Y-48300D01*
X52300Y-44700D02*
X52300Y-43800D01*
X52300Y-43800D02*
X52300Y-43700D01*
X52300Y-43700D02*
X51500Y-42900D01*
G54D35*
X62800Y-44900D02*
X62800Y-41900D01*
X60700Y-47000D02*
X62800Y-44900D01*
X59300Y-47000D02*
X60700Y-47000D01*
X56700Y-49400D02*
X59300Y-47000D01*
G54D33*
X63250Y-57200D02*
X63250Y-55900D01*
X63250Y-55900D02*
X62700Y-55350D01*
X56150Y-54600D02*
X59200Y-54600D01*
X61150Y-55350D02*
X62700Y-55350D01*
X60350Y-54550D02*
X61150Y-55350D01*
X55000Y-54600D02*
X56150Y-54600D01*
X52750Y-56500D02*
X52800Y-56500D01*
X54700Y-54600D02*
X55000Y-54600D01*
X52800Y-56500D02*
X54700Y-54600D01*
X89050Y-58050D02*
X89050Y-54000D01*
X89050Y-54000D02*
X92050Y-51000D01*
G54D35*
X21600Y-45200D02*
X23100Y-45200D01*
X24450Y-48300D02*
X24200Y-48300D01*
X24200Y-48300D02*
X23000Y-47100D01*
X23000Y-47100D02*
X22700Y-47100D01*
X22700Y-47100D02*
X22300Y-46700D01*
X22300Y-46700D02*
X22300Y-45450D01*
X22300Y-45450D02*
X22550Y-45200D01*
X22550Y-45200D02*
X23100Y-45200D01*
X27350Y-48300D02*
X24450Y-48300D01*
G54D37*
X90877Y-39698D02*
X90877Y-49827D01*
X90877Y-49827D02*
X92050Y-51000D01*
G54D38*
X21600Y-45200D02*
X21600Y-43550D01*
X21600Y-43550D02*
X21550Y-43500D01*
G54D33*
X57500Y-43700D02*
X53900Y-43700D01*
X43800Y-48300D02*
X43800Y-43500D01*
X51500Y-42900D02*
X44700Y-42900D01*
X44700Y-42900D02*
X44700Y-40700D01*
G54D39*
X57300Y-44700D02*
X57300Y-44500D01*
X90004Y-38800D02*
X90877Y-37926D01*
X87600Y-38800D02*
X90004Y-38800D01*
X85199Y-41200D02*
X87600Y-38800D01*
X60599Y-41200D02*
X85199Y-41200D01*
X57300Y-44500D02*
X60599Y-41200D01*
X41700Y-42900D02*
X37500Y-42900D01*
X32426Y-37826D02*
X31827Y-37826D01*
X37500Y-42900D02*
X32426Y-37826D01*
X41700Y-43900D02*
X41200Y-43900D01*
X28351Y-40700D02*
X25477Y-37826D01*
X35017Y-40700D02*
X28351Y-40700D01*
X37417Y-43100D02*
X35017Y-40700D01*
X40400Y-43100D02*
X37417Y-43100D01*
X41200Y-43900D02*
X40400Y-43100D01*
X41700Y-44900D02*
X41700Y-44700D01*
X21351Y-39200D02*
X19977Y-37826D01*
X21500Y-39200D02*
X21351Y-39200D01*
X23200Y-40900D02*
X21500Y-39200D01*
X34934Y-40900D02*
X23200Y-40900D01*
X37334Y-43300D02*
X34934Y-40900D01*
X40300Y-43300D02*
X37334Y-43300D01*
X41700Y-44700D02*
X40300Y-43300D01*
X58300Y-41700D02*
X58300Y-41400D01*
X83404Y-38900D02*
X84377Y-37926D01*
X80400Y-38900D02*
X83404Y-38900D01*
X78299Y-41000D02*
X80400Y-38900D01*
X58700Y-41000D02*
X78299Y-41000D01*
X58300Y-41400D02*
X58700Y-41000D01*
X57300Y-41700D02*
X57300Y-41100D01*
X77004Y-38800D02*
X77877Y-37926D01*
X74600Y-38800D02*
X77004Y-38800D01*
X72599Y-40800D02*
X74600Y-38800D01*
X57600Y-40800D02*
X72599Y-40800D01*
X57300Y-41100D02*
X57600Y-40800D01*
X56300Y-41700D02*
X56300Y-40900D01*
X70154Y-38900D02*
X71127Y-37926D01*
X67600Y-38900D02*
X70154Y-38900D01*
X65899Y-40600D02*
X67600Y-38900D01*
X56599Y-40600D02*
X65899Y-40600D01*
X56300Y-40900D02*
X56599Y-40600D01*
X55300Y-41700D02*
X55300Y-41500D01*
X63504Y-38800D02*
X64377Y-37926D01*
X61600Y-38800D02*
X63504Y-38800D01*
X60000Y-40400D02*
X61600Y-38800D01*
X56400Y-40400D02*
X60000Y-40400D01*
X55300Y-41500D02*
X56400Y-40400D01*
X54300Y-41700D02*
X54300Y-39300D01*
X57204Y-38600D02*
X58127Y-37676D01*
X55000Y-38600D02*
X57204Y-38600D01*
X54300Y-39300D02*
X55000Y-38600D01*
X53300Y-41700D02*
X53300Y-38848D01*
X53300Y-38848D02*
X52127Y-37676D01*
X52300Y-41700D02*
X51600Y-41000D01*
X48701Y-41000D02*
X45377Y-37676D01*
X51600Y-41000D02*
X48701Y-41000D01*
X38827Y-37676D02*
X38976Y-37676D01*
X43500Y-42700D02*
X44700Y-43900D01*
X43500Y-42200D02*
X43500Y-42700D01*
X38976Y-37676D02*
X43500Y-42200D01*
G54D33*
X52750Y-55500D02*
X52550Y-55500D01*
X52100Y-55050D02*
X52100Y-52050D01*
X52550Y-55500D02*
X52100Y-55050D01*
X60750Y-56550D02*
X60750Y-55500D01*
X54525Y-53475D02*
X53100Y-52050D01*
X58725Y-53475D02*
X54525Y-53475D01*
X60750Y-55500D02*
X58725Y-53475D01*
X74200Y-47500D02*
X74200Y-47000D01*
X74200Y-47000D02*
X74400Y-46800D01*
X81300Y-55500D02*
X80900Y-55500D01*
X80900Y-55500D02*
X80600Y-55200D01*
X33500Y-51300D02*
X33300Y-51300D01*
X52657Y-51057D02*
X51100Y-49500D01*
X51100Y-49500D02*
X47500Y-49500D01*
X47500Y-49500D02*
X47000Y-50000D01*
X47000Y-50000D02*
X47000Y-50700D01*
X46600Y-51300D02*
X33500Y-51300D01*
X54647Y-51057D02*
X52657Y-51057D01*
X47000Y-50900D02*
X46600Y-51300D01*
X47000Y-50700D02*
X47000Y-50900D01*
X25700Y-51300D02*
X24450Y-51300D01*
X26400Y-52000D02*
X25700Y-51300D01*
X26400Y-53900D02*
X26400Y-52000D01*
X27100Y-54600D02*
X26400Y-53900D01*
X30900Y-54600D02*
X27100Y-54600D01*
X31600Y-53900D02*
X30900Y-54600D01*
X31600Y-53000D02*
X31600Y-53900D01*
X33300Y-51300D02*
X31600Y-53000D01*
G54D35*
X24515Y-53787D02*
X24515Y-51365D01*
X24515Y-51365D02*
X24450Y-51300D01*
G54D33*
X28800Y-51300D02*
X27350Y-51300D01*
X29000Y-51100D02*
X28800Y-51300D01*
X29950Y-51049D02*
X29900Y-51100D01*
X46496Y-51049D02*
X29950Y-51049D01*
X46749Y-50796D02*
X46496Y-51049D01*
X46749Y-49850D02*
X46749Y-50796D01*
X47350Y-49249D02*
X46749Y-49850D01*
X53049Y-49249D02*
X47350Y-49249D01*
X54200Y-50400D02*
X53049Y-49249D01*
G54D35*
X27468Y-53787D02*
X27468Y-51418D01*
X27468Y-51418D02*
X27350Y-51300D01*
G54D39*
X52100Y-46050D02*
X52100Y-47500D01*
X57950Y-51250D02*
X66500Y-51250D01*
X57100Y-50400D02*
X57950Y-51250D01*
X55000Y-50400D02*
X57100Y-50400D01*
X52100Y-47500D02*
X55000Y-50400D01*
X54100Y-46050D02*
X54100Y-48817D01*
X67850Y-46250D02*
X72452Y-46250D01*
X67300Y-45700D02*
X67850Y-46250D01*
X66100Y-45700D02*
X67300Y-45700D01*
X61800Y-49999D02*
X66100Y-45700D01*
X55282Y-49999D02*
X61800Y-49999D01*
X54100Y-48817D02*
X55282Y-49999D01*
X53100Y-46050D02*
X53100Y-48100D01*
X62550Y-50199D02*
X66500Y-46250D01*
X55199Y-50199D02*
X62550Y-50199D01*
X53100Y-48100D02*
X55199Y-50199D01*
G54D33*
X72452Y-49250D02*
X72300Y-49250D01*
X73450Y-47150D02*
X73450Y-44900D01*
X72850Y-47750D02*
X73450Y-47150D01*
X72150Y-47750D02*
X72850Y-47750D01*
X71800Y-48100D02*
X72150Y-47750D01*
X71800Y-48750D02*
X71800Y-48100D01*
X72300Y-49250D02*
X71800Y-48750D01*
G54D39*
X55100Y-46050D02*
X55100Y-49500D01*
X70850Y-52250D02*
X72452Y-52250D01*
X69300Y-50700D02*
X70850Y-52250D01*
X62600Y-50700D02*
X69300Y-50700D01*
X62500Y-50600D02*
X62600Y-50700D01*
X61300Y-49799D02*
X61500Y-49600D01*
X55399Y-49799D02*
X61300Y-49799D01*
X55100Y-49500D02*
X55399Y-49799D01*
G54D35*
X50050Y-27800D02*
X50100Y-27800D01*
X51500Y-29200D02*
X51500Y-30100D01*
X50100Y-27800D02*
X51500Y-29200D01*
X50550Y-24700D02*
X50550Y-27300D01*
X50550Y-27300D02*
X50050Y-27800D01*
X56150Y-27800D02*
X56350Y-27800D01*
X57700Y-29150D02*
X57700Y-30100D01*
X56350Y-27800D02*
X57700Y-29150D01*
X56700Y-24700D02*
X56700Y-27250D01*
X56700Y-27250D02*
X56150Y-27800D01*
X29850Y-27800D02*
X30100Y-27800D01*
X31400Y-29100D02*
X31400Y-30100D01*
X30100Y-27800D02*
X31400Y-29100D01*
X30350Y-24700D02*
X30350Y-27300D01*
X30350Y-27300D02*
X29850Y-27800D01*
G54D33*
X36250Y-35000D02*
X37550Y-35000D01*
X37550Y-35000D02*
X37750Y-35200D01*
G54D35*
X24100Y-24700D02*
X24100Y-27250D01*
X24100Y-27250D02*
X23550Y-27800D01*
X23550Y-27800D02*
X23550Y-28000D01*
X25050Y-29500D02*
X25050Y-30100D01*
X23550Y-28000D02*
X25050Y-29500D01*
G54D33*
X29350Y-35000D02*
X30750Y-35000D01*
X30750Y-35000D02*
X30950Y-35200D01*
G54D40*
X29465Y-37826D02*
X29465Y-36915D01*
X28300Y-33050D02*
X29350Y-32000D01*
X28300Y-35750D02*
X28300Y-33050D01*
X29465Y-36915D02*
X28300Y-35750D01*
G54D33*
X29350Y-32000D02*
X29350Y-31150D01*
X29350Y-31150D02*
X30400Y-30100D01*
X42850Y-35000D02*
X44250Y-35000D01*
X44250Y-35000D02*
X44450Y-35200D01*
G54D40*
X43015Y-37676D02*
X43015Y-36865D01*
X42000Y-32850D02*
X42850Y-32000D01*
X42000Y-35850D02*
X42000Y-32850D01*
X43015Y-36865D02*
X42000Y-35850D01*
G54D33*
X42850Y-32000D02*
X42850Y-31200D01*
X42850Y-31200D02*
X43950Y-30100D01*
G54D40*
X36465Y-37676D02*
X36465Y-36865D01*
X35300Y-32950D02*
X36250Y-32000D01*
X35300Y-35700D02*
X35300Y-32950D01*
X36465Y-36865D02*
X35300Y-35700D01*
G54D33*
X36250Y-32000D02*
X36250Y-31150D01*
X36250Y-31150D02*
X37300Y-30100D01*
X55650Y-35000D02*
X57050Y-35000D01*
X57050Y-35000D02*
X57250Y-35200D01*
G54D35*
X36750Y-27800D02*
X36850Y-27800D01*
X38300Y-29250D02*
X38300Y-30100D01*
X36850Y-27800D02*
X38300Y-29250D01*
X37250Y-24700D02*
X37250Y-27300D01*
X37250Y-27300D02*
X36750Y-27800D01*
X89050Y-27800D02*
X89100Y-27800D01*
X90600Y-29300D02*
X90600Y-30100D01*
X89100Y-27800D02*
X90600Y-29300D01*
X89550Y-24700D02*
X89550Y-27300D01*
X89550Y-27300D02*
X89050Y-27800D01*
G54D33*
X88550Y-35000D02*
X89950Y-35000D01*
X89950Y-35000D02*
X90150Y-35200D01*
G54D40*
X88515Y-37926D02*
X88515Y-37415D01*
X87600Y-32950D02*
X88550Y-32000D01*
X87600Y-36500D02*
X87600Y-32950D01*
X88515Y-37415D02*
X87600Y-36500D01*
G54D33*
X88550Y-32000D02*
X88550Y-31150D01*
X88550Y-31150D02*
X89600Y-30100D01*
G54D40*
X55765Y-37676D02*
X55765Y-36965D01*
X55050Y-32600D02*
X55650Y-32000D01*
X55050Y-36250D02*
X55050Y-32600D01*
X55765Y-36965D02*
X55050Y-36250D01*
G54D33*
X55650Y-32000D02*
X55650Y-31150D01*
X55650Y-31150D02*
X56700Y-30100D01*
X49450Y-35000D02*
X50750Y-35000D01*
X50750Y-35000D02*
X50950Y-35200D01*
G54D35*
X69050Y-27800D02*
X69100Y-27800D01*
X70550Y-29250D02*
X70550Y-30100D01*
X69100Y-27800D02*
X70550Y-29250D01*
X69550Y-24700D02*
X69550Y-27300D01*
X69550Y-27300D02*
X69050Y-27800D01*
G54D33*
X75350Y-35000D02*
X76750Y-35000D01*
X76750Y-35000D02*
X76950Y-35200D01*
G54D40*
X75350Y-32000D02*
X75350Y-32850D01*
X74550Y-36960D02*
X75515Y-37926D01*
X74550Y-33650D02*
X74550Y-36960D01*
X75350Y-32850D02*
X74550Y-33650D01*
G54D33*
X75350Y-32000D02*
X75350Y-31200D01*
X75350Y-31200D02*
X76450Y-30100D01*
X68450Y-35000D02*
X69850Y-35000D01*
X69850Y-35000D02*
X70050Y-35200D01*
G54D40*
X68450Y-32000D02*
X68450Y-32550D01*
X67550Y-36710D02*
X68765Y-37926D01*
X67550Y-33450D02*
X67550Y-36710D01*
X68450Y-32550D02*
X67550Y-33450D01*
G54D33*
X68450Y-32000D02*
X68450Y-31200D01*
X68450Y-31200D02*
X69550Y-30100D01*
X81950Y-35000D02*
X83250Y-35000D01*
X83250Y-35000D02*
X83450Y-35200D01*
G54D40*
X49765Y-37676D02*
X49765Y-36915D01*
X48600Y-32850D02*
X49450Y-32000D01*
X48600Y-35750D02*
X48600Y-32850D01*
X49765Y-36915D02*
X48600Y-35750D01*
G54D33*
X49450Y-32000D02*
X49450Y-31150D01*
X49450Y-31150D02*
X50500Y-30100D01*
G54D40*
X82015Y-37926D02*
X82015Y-37215D01*
X81100Y-32850D02*
X81950Y-32000D01*
X81100Y-36300D02*
X81100Y-32850D01*
X82015Y-37215D02*
X81100Y-36300D01*
G54D33*
X81950Y-32000D02*
X81950Y-31150D01*
X81950Y-31150D02*
X83000Y-30100D01*
G54D35*
X82450Y-27800D02*
X82600Y-27800D01*
X84000Y-29200D02*
X84000Y-30100D01*
X82600Y-27800D02*
X84000Y-29200D01*
X83000Y-24700D02*
X83000Y-27250D01*
X83000Y-27250D02*
X82450Y-27800D01*
X75950Y-27800D02*
X75950Y-27900D01*
X77450Y-29400D02*
X77450Y-30100D01*
X75950Y-27900D02*
X77450Y-29400D01*
X76450Y-24700D02*
X76450Y-27300D01*
X76450Y-27300D02*
X75950Y-27800D01*
G54D33*
X79100Y-57000D02*
X80100Y-57000D01*
X78500Y-50500D02*
X79100Y-50500D01*
X80100Y-51500D02*
X80100Y-57000D01*
X79100Y-50500D02*
X80100Y-51500D01*
X78500Y-50500D02*
X75650Y-50500D01*
X75650Y-50500D02*
X75150Y-51000D01*
X83900Y-58000D02*
X83900Y-58250D01*
X85500Y-58599D02*
X86050Y-58050D01*
X84249Y-58599D02*
X85500Y-58599D01*
X83900Y-58250D02*
X84249Y-58599D01*
X75450Y-44850D02*
X74500Y-44850D01*
X74500Y-44850D02*
X74450Y-44900D01*
X85900Y-54000D02*
X85900Y-54350D01*
X85900Y-54350D02*
X86550Y-55000D01*
X85300Y-52800D02*
X85300Y-53400D01*
X85300Y-53400D02*
X85900Y-54000D01*
X81800Y-55500D02*
X81800Y-56100D01*
X82700Y-57000D02*
X82900Y-57000D01*
X81800Y-56100D02*
X82700Y-57000D01*
X61650Y-35000D02*
X63050Y-35000D01*
X63050Y-35000D02*
X63250Y-35200D01*
X72452Y-48250D02*
X73050Y-48250D01*
X73300Y-48000D02*
X74200Y-48000D01*
X73050Y-48250D02*
X73300Y-48000D01*
X82900Y-58000D02*
X82900Y-58450D01*
X86700Y-56150D02*
X86550Y-56000D01*
X86700Y-58500D02*
X86700Y-56150D01*
X86350Y-58850D02*
X86700Y-58500D01*
X83300Y-58850D02*
X86350Y-58850D01*
X82900Y-58450D02*
X83300Y-58850D01*
G54D39*
X44700Y-44900D02*
X51100Y-44900D01*
X51100Y-44900D02*
X51300Y-44700D01*
G54D40*
X62015Y-37926D02*
X62015Y-36815D01*
X60600Y-33050D02*
X61650Y-32000D01*
X60600Y-35400D02*
X60600Y-33050D01*
X62015Y-36815D02*
X60600Y-35400D01*
G54D33*
X61650Y-32000D02*
X61650Y-31200D01*
X61650Y-31200D02*
X62750Y-30100D01*
G54D35*
X29437Y-52803D02*
X29437Y-48737D01*
X26900Y-46200D02*
X23100Y-46200D01*
X29437Y-48737D02*
X26900Y-46200D01*
G54D33*
X54800Y-56550D02*
X57750Y-56550D01*
X54100Y-55850D02*
X54800Y-56550D01*
X57750Y-57500D02*
X57750Y-58550D01*
X57750Y-56550D02*
X57750Y-57500D01*
X16750Y-35000D02*
X18200Y-35000D01*
X18200Y-35000D02*
X18400Y-35200D01*
G54D40*
X23115Y-37826D02*
X23115Y-37015D01*
X22000Y-32950D02*
X22950Y-32000D01*
X22000Y-35900D02*
X22000Y-32950D01*
X23115Y-37015D02*
X22000Y-35900D01*
G54D33*
X22950Y-32000D02*
X22950Y-31200D01*
X22950Y-31200D02*
X24050Y-30100D01*
X22950Y-35000D02*
X24350Y-35000D01*
X24350Y-35000D02*
X24550Y-35200D01*
G54D40*
X17615Y-37826D02*
X18673Y-37826D01*
X18450Y-32000D02*
X16750Y-32000D01*
X20350Y-33900D02*
X18450Y-32000D01*
X20350Y-36150D02*
X20350Y-33900D01*
X18673Y-37826D02*
X20350Y-36150D01*
G54D33*
X17100Y-30100D02*
X17100Y-31650D01*
X17100Y-31650D02*
X16750Y-32000D01*
G54D35*
X62250Y-27800D02*
X62350Y-27800D01*
X63750Y-29200D02*
X63750Y-30100D01*
X62350Y-27800D02*
X63750Y-29200D01*
X62750Y-24700D02*
X62750Y-27300D01*
X62750Y-27300D02*
X62250Y-27800D01*
X17100Y-24700D02*
X17100Y-27350D01*
X17100Y-27350D02*
X16650Y-27800D01*
X16650Y-27800D02*
X16650Y-27850D01*
X18100Y-29300D02*
X18100Y-30100D01*
X16650Y-27850D02*
X18100Y-29300D01*
G54D38*
X21600Y-46200D02*
X21600Y-47900D01*
G54D41*
X19450Y-50100D02*
X19450Y-50050D01*
X19450Y-50050D02*
X21600Y-47900D01*
G54D33*
X84350Y-49800D02*
X85300Y-49800D01*
X81500Y-50500D02*
X82700Y-50500D01*
X83400Y-49800D02*
X84350Y-49800D01*
X82700Y-50500D02*
X83400Y-49800D01*
X78500Y-45850D02*
X78500Y-44900D01*
X78500Y-44900D02*
X78450Y-44850D01*
X78500Y-48500D02*
X78500Y-45850D01*
X75150Y-48000D02*
X78000Y-48000D01*
X78000Y-48000D02*
X78500Y-48500D01*
X81500Y-51500D02*
X83050Y-51500D01*
X83050Y-51500D02*
X84350Y-52800D01*
X81500Y-51500D02*
X81150Y-51500D01*
X81500Y-46550D02*
X81500Y-45850D01*
X80300Y-47750D02*
X81500Y-46550D01*
X80300Y-48950D02*
X80300Y-47750D01*
X80300Y-50650D02*
X80300Y-50050D01*
X81150Y-51500D02*
X80300Y-50650D01*
G54D35*
X43450Y-27800D02*
X43450Y-27900D01*
X44950Y-29400D02*
X44950Y-30100D01*
X43450Y-27900D02*
X44950Y-29400D01*
X43950Y-24700D02*
X43950Y-27300D01*
X43950Y-27300D02*
X43450Y-27800D01*
G54D39*
X44700Y-47900D02*
X45500Y-47900D01*
X47350Y-46050D02*
X48100Y-46050D01*
X45500Y-47900D02*
X47350Y-46050D01*
X48100Y-46050D02*
X48100Y-45700D01*
X52800Y-45200D02*
X53300Y-44700D01*
X48600Y-45200D02*
X52800Y-45200D01*
X48100Y-45700D02*
X48600Y-45200D01*
X44700Y-46900D02*
X45900Y-46900D01*
X47400Y-45400D02*
X47800Y-45400D01*
X45900Y-46900D02*
X47400Y-45400D01*
X49100Y-46050D02*
X49100Y-45700D01*
X53599Y-45400D02*
X54300Y-44700D01*
X49399Y-45400D02*
X53599Y-45400D01*
X49100Y-45700D02*
X49399Y-45400D01*
X44700Y-45900D02*
X45000Y-45900D01*
X50100Y-46900D02*
X50100Y-46050D01*
X48100Y-48900D02*
X50100Y-46900D01*
X46200Y-48900D02*
X48100Y-48900D01*
X45600Y-48300D02*
X46200Y-48900D01*
X45000Y-45900D02*
X45600Y-46500D01*
G54D33*
X74200Y-48500D02*
X74200Y-48800D01*
X74900Y-49500D02*
X78500Y-49500D01*
X74200Y-48800D02*
X74900Y-49500D01*
X82300Y-55500D02*
X82600Y-55500D01*
X82900Y-55200D02*
X82900Y-54000D01*
X82600Y-55500D02*
X82900Y-55200D01*
X82900Y-54000D02*
X82900Y-52000D01*
X82900Y-52000D02*
X82850Y-51950D01*
X86350Y-45950D02*
X86350Y-45250D01*
X86350Y-45250D02*
X87350Y-44250D01*
X86350Y-46900D02*
X86350Y-45950D01*
X81500Y-49500D02*
X83750Y-49500D01*
X83750Y-49500D02*
X86350Y-46900D01*
X78500Y-49500D02*
X81500Y-49500D01*
M02*
